<?xml version="1.0" encoding="utf-8"?>
<!-- Generator: Adobe Illustrator 21.0.0, SVG Export Plug-In . SVG Version: 6.00 Build 0)  -->
<svg version="1.1" id="Layer_1" xmlns="http://www.w3.org/2000/svg" xmlns:xlink="http://www.w3.org/1999/xlink" x="0px" y="0px"
	 viewBox="0 0 200 200" style="enable-background:new 0 0 200 200;" xml:space="preserve">
<style type="text/css">
	.st0{fill:#3F2E3B;}
</style>
<path class="st0" d="M187.4,63c-4.9-11.3-11.7-21.4-20.4-30.1c-8.6-8.6-18.7-15.5-30.1-20.4C125.4,7.6,113,5.1,100,5.1
	s-25.6,2.6-37,7.5S41.4,24.3,32.8,33S17.5,51.8,12.7,63.3c-4.9,11.5-7.4,23.9-7.4,36.9c0,12.9,2.4,25.4,7.4,36.9
	c4.9,11.4,11.6,21.4,20.3,30.1c8.5,8.6,18.7,15.4,30.1,20.3c11.5,4.9,23.9,7.4,36.9,7.4c12.9,0,25.3-2.6,36.9-7.7
	c11.3-4.9,21.3-11.6,30.1-20.3c8.6-8.5,15.5-18.7,20.4-30.1c4.9-11.5,7.4-23.9,7.4-36.9S192.3,74.5,187.4,63z M86.4,147.2
	c-1.5,1.3-3.5,2.2-5.5,2.2c-1.5,0-3.5-0.4-5-1.8c-2.9-2.2-3.5-6.7-0.5-9.5l36.8-38.3L75.4,61.6C73,59,73,54.4,75.9,52.2
	s8-2.2,10.5,0.4l45.8,47.3L86.4,147.2z"/>
</svg>
