<?xml version="1.0" encoding="utf-8"?>
<!-- Generator: Adobe Illustrator 21.0.0, SVG Export Plug-In . SVG Version: 6.00 Build 0)  -->
<svg version="1.1" id="Layer_1" xmlns="http://www.w3.org/2000/svg" xmlns:xlink="http://www.w3.org/1999/xlink" x="0px" y="0px"
	 viewBox="0 0 200 200" style="enable-background:new 0 0 200 200;" xml:space="preserve">
<style type="text/css">
	.st0{fill:#D77B33;}
</style>
<path class="st0" d="M192.8,61c-5.1-11.8-12.3-22.5-21.5-31.8s-19.5-16.4-31.8-21.5S113.9,0,100.6,0s-26.7,2.6-39,7.7
	C49.8,12.8,39.1,20,29.9,29.2S13.5,48.7,8.4,61S0.7,86.1,0.7,99.9s2.6,26.6,7.7,38.9s12.3,22.5,21.5,31.8s19.5,16.4,31.8,21.5
	s25.1,7.7,38.9,7.7s26.6-2.6,38.9-7.7c11.8-5.1,22.5-12.3,31.8-21.5s16.4-19.5,21.5-31.8s7.7-25.6,7.7-38.9
	C201,86.1,198.4,73.3,192.8,61z M150.8,79.9l-58.9,52.8l-24.1-22.5c-1.5-1.5-2-3.1-2-4.6s0.5-3.1,1.5-4.6c2-2.6,6.7-3.1,9.2-0.5
	l15.4,14.9l50.2-45.6c2.6-2,7.2-2,9.2,0.5C153.8,73.3,153.8,77.4,150.8,79.9z"/>
</svg>
