<?xml version="1.0" encoding="utf-8"?>
<!-- Generator: Adobe Illustrator 21.0.0, SVG Export Plug-In . SVG Version: 6.00 Build 0)  -->
<svg version="1.1" id="Layer_1" xmlns="http://www.w3.org/2000/svg" xmlns:xlink="http://www.w3.org/1999/xlink" x="0px" y="0px"
	 viewBox="0 0 200 200" style="enable-background:new 0 0 200 200;" xml:space="preserve">
<style type="text/css">
	.st0{fill:#3F2E3B;}
</style>
<g>
	<g>
		<g>
			<g>
				<path class="st0" d="M100,200c-13.8,0-27-2.7-39.2-7.9c-12.1-5.2-22.9-12.4-32-21.6c-9.2-9.2-16.4-19.9-21.6-32
					C1.9,126.3-0.7,113-0.7,99.3c0-13.8,2.7-27,7.9-39.2c5.2-12,12.4-22.8,21.5-32c9.1-9.2,19.9-16.5,32.1-21.7
					C73,1.2,86.2-1.5,100-1.5c13.8,0,27,2.7,39.2,7.9c12.1,5.2,22.8,12.5,32,21.7c9.2,9.2,16.5,20,21.7,32
					c5.2,12.2,7.9,25.4,7.9,39.2c0,13.8-2.7,27-7.9,39.2c-5.2,12.1-12.5,22.9-21.7,32c-9.3,9.2-20,16.4-32,21.6
					C126.9,197.3,113.7,200,100,200z M100,11.8c-12,0-23.4,2.3-34,6.8c-10.6,4.5-20,10.8-27.8,18.8c-8,8-14.3,17.4-18.8,27.9
					c-4.5,10.5-6.8,21.9-6.8,33.9c0,12,2.3,23.4,6.8,34.1c4.5,10.5,10.8,19.9,18.8,27.9c7.9,7.9,17.3,14.3,27.9,18.7
					c10.6,4.5,22.1,6.8,34,6.8c11.9,0,23.3-2.3,34-6.8c10.5-4.5,19.8-10.8,27.9-18.8c8-8,14.3-17.4,18.8-27.9
					c4.5-10.6,6.8-22.1,6.8-34c0-12-2.3-23.4-6.8-33.9c-4.5-10.5-10.9-19.9-18.9-27.9c-8-8-17.4-14.3-27.9-18.9
					C123.4,14.1,112,11.8,100,11.8z"/>
			</g>
		</g>
	</g>
	<g>
		<g>
			<path class="st0" d="M143.2,105.9H56.8c-3.7,0-6.6-3-6.6-6.6s3-6.6,6.6-6.6h86.4c3.7,0,6.6,3,6.6,6.6S146.9,105.9,143.2,105.9z"
				/>
		</g>
		<g>
			<path class="st0" d="M100,149.1c-3.7,0-6.6-3-6.6-6.6V56.1c0-3.7,3-6.6,6.6-6.6c3.7,0,6.6,3,6.6,6.6v86.4
				C106.6,146.1,103.7,149.1,100,149.1z"/>
		</g>
	</g>
</g>
</svg>
