<?xml version="1.0" encoding="utf-8"?>
<!-- Generator: Adobe Illustrator 21.0.0, SVG Export Plug-In . SVG Version: 6.00 Build 0)  -->
<svg version="1.1" id="Layer_1" xmlns="http://www.w3.org/2000/svg" xmlns:xlink="http://www.w3.org/1999/xlink" x="0px" y="0px"
	 viewBox="0 0 200 200" style="enable-background:new 0 0 200 200;" xml:space="preserve">
<style type="text/css">
	.st0{fill:#3F2E3B;}
</style>
<path class="st0" d="M192.2,61.1c-5.1-11.9-12.4-22.7-21.5-31.8c-9.2-9.1-19.8-16.3-31.8-21.5C126.8,2.7,113.7,0,100,0
	S73.1,2.6,61,7.8S38.3,20.3,29.2,29.4C20.1,38.5,13,49.2,7.8,61.1C2.7,73.2,0,86.3,0,100c0,13.6,2.6,26.8,7.8,39
	c5.2,12,12.3,22.6,21.5,31.8c9.1,9.1,19.8,16.2,31.8,21.4c12.1,5.1,25.2,7.8,38.9,7.8c13.5,0,26.7-2.7,38.9-7.9
	c11.9-5.1,22.6-12.3,31.8-21.4c9.1-9.1,16.3-19.8,21.5-31.8c5.1-12.1,7.8-25.2,7.8-38.9S197.4,73.2,192.2,61.1z M135,135
	c-2.6,2.5-6.7,2.6-9.3,0L100,109.3L74.3,135c-2.6,2.5-6.7,2.6-9.3,0c-2.6-2.6-2.5-6.8,0-9.3L90.7,100L65,74.4
	c-2.6-2.6-2.5-6.8,0-9.3c2.6-2.5,6.8-2.5,9.3,0L100,90.8L125.6,65c2.6-2.6,6.8-2.5,9.3,0c2.6,2.6,2.5,6.8,0,9.3L109.2,100l25.7,25.7
	C137.5,128.3,137.4,132.5,135,135z"/>
</svg>
