<?xml version="1.0" encoding="utf-8"?>
<!-- Generator: Adobe Illustrator 21.0.0, SVG Export Plug-In . SVG Version: 6.00 Build 0)  -->
<svg version="1.1" id="Layer_1" xmlns="http://www.w3.org/2000/svg" xmlns:xlink="http://www.w3.org/1999/xlink" x="0px" y="0px"
	 viewBox="0 0 200 200" style="enable-background:new 0 0 200 200;" xml:space="preserve">
<style type="text/css">
	.st0{fill:#3F2E3B;}
</style>
<path class="st0" d="M192.9,60.1c-5.2-12-12.5-22.8-21.7-32c-9.2-9.2-19.9-16.5-32-21.7C127,1.2,113.8-1.5,100-1.5S73,1.2,60.8,6.4
	c-12.2,5.2-23,12.5-32.1,21.7c-9.1,9.2-16.3,20-21.5,32C2,72.3-0.7,85.5-0.7,99.3c0,13.7,2.6,27,7.9,39.2
	c5.2,12.1,12.4,22.8,21.6,32c9.1,9.2,19.9,16.4,32,21.6C73,197.3,86.2,200,100,200c13.7,0,26.9-2.7,39.2-7.9
	c12-5.2,22.7-12.4,32-21.6c9.2-9.1,16.5-19.9,21.7-32c5.2-12.2,7.9-25.4,7.9-39.2S198.1,72.3,192.9,60.1z M143.7,105.9h-36.6v36.6
	c0,3.6-2.9,6.6-6.6,6.6s-6.6-3-6.6-6.6v-36.6H57.3c-3.7,0-6.6-3-6.6-6.6c0-3.6,3-6.6,6.6-6.6h36.6V56.1c0-3.7,3-6.6,6.6-6.6
	c3.7,0,6.6,3,6.6,6.6v36.6h36.6c3.7,0,6.6,3,6.6,6.6C150.3,102.9,147.4,105.9,143.7,105.9z"/>
</svg>
