<?xml version="1.0" encoding="utf-8"?>
<!-- Generator: Adobe Illustrator 21.0.0, SVG Export Plug-In . SVG Version: 6.00 Build 0)  -->
<svg version="1.1" id="Layer_1" xmlns="http://www.w3.org/2000/svg" xmlns:xlink="http://www.w3.org/1999/xlink" x="0px" y="0px"
	 viewBox="0 0 200 200" style="enable-background:new 0 0 200 200;" xml:space="preserve">
<style type="text/css">
	.st0{fill:#3F2E3B;}
</style>
<g>
	<g>
		<g>
			<path class="st0" d="M100,200c-13.7,0-26.8-2.7-38.9-7.8c-12-5.2-22.7-12.3-31.8-21.4C20.1,161.6,13,151,7.8,139
				C2.6,126.8,0,113.6,0,100c0-13.7,2.7-26.8,7.8-38.9C13,49.2,20.1,38.5,29.2,29.4S48.9,13,61,7.8S86.3,0,100,0s26.8,2.7,38.9,7.8
				c12,5.2,22.6,12.4,31.8,21.5c9.1,9.1,16.4,19.9,21.5,31.8c5.2,12.1,7.8,25.2,7.8,38.9s-2.7,26.8-7.8,38.9
				c-5.2,12-12.4,22.7-21.5,31.8c-9.2,9.1-19.9,16.3-31.8,21.4C126.7,197.3,113.5,200,100,200z M100,13.2c-11.9,0-23.2,2.3-33.7,6.7
				S46.4,30.7,38.6,38.6C30.7,46.6,24.4,55.9,20,66.3S13.2,88,13.2,100s2.3,23.2,6.7,33.8c4.5,10.4,10.7,19.8,18.7,27.7
				c7.8,7.8,17.2,14.2,27.7,18.6c10.5,4.5,21.9,6.7,33.7,6.7s23.1-2.3,33.7-6.7c10.4-4.5,19.7-10.7,27.7-18.7
				c7.9-7.9,14.2-17.3,18.7-27.7c4.5-10.5,6.7-21.9,6.7-33.7c0-11.9-2.3-23.2-6.7-33.6s-10.8-19.8-18.8-27.7
				c-7.9-7.9-17.3-14.2-27.7-18.8C123.2,15.5,111.9,13.2,100,13.2z"/>
		</g>
	</g>
</g>
<path class="st0" d="M134.9,125.7L109.2,100l25.7-25.7c2.5-2.5,2.6-6.7,0-9.3c-2.5-2.5-6.7-2.6-9.3,0L100,90.8L74.3,65.1
	c-2.5-2.5-6.7-2.5-9.3,0c-2.5,2.5-2.6,6.7,0,9.3L90.7,100L65,125.7c-2.5,2.5-2.6,6.7,0,9.3c2.6,2.6,6.7,2.5,9.3,0l25.7-25.7
	l25.7,25.7c2.6,2.6,6.7,2.5,9.3,0C137.4,132.5,137.5,128.3,134.9,125.7z"/>
</svg>
