<?xml version="1.0" encoding="utf-8"?>
<!-- Generator: Adobe Illustrator 21.1.0, SVG Export Plug-In . SVG Version: 6.00 Build 0)  -->
<svg version="1.1" id="Layer_1" xmlns="http://www.w3.org/2000/svg" xmlns:xlink="http://www.w3.org/1999/xlink" x="0px" y="0px"
	 viewBox="0 0 30 30" style="enable-background:new 0 0 30 30;" xml:space="preserve">
<style type="text/css">
	.st0{fill:#FFFFFF;}
</style>
<path class="st0" d="M17.5,15L28,4.5c0.8-0.7,0.7-1.8,0-2.5s-1.9-0.7-2.6,0L15,12.4L4.6,2C3.9,1.4,2.7,1.4,2,2
	C1.3,2.7,1.3,3.8,2,4.6L12.4,15L2,25.4c-0.7,0.7-0.7,1.9,0,2.6s1.9,0.7,2.6,0L15,17.5L25.4,28c0.8,0.7,1.9,0.6,2.6,0
	c0.7-0.7,0.7-1.9,0-2.6L17.5,15z"/>
</svg>
