<?xml version="1.0" encoding="utf-8"?>
<!-- Generator: Adobe Illustrator 21.0.0, SVG Export Plug-In . SVG Version: 6.00 Build 0)  -->
<svg version="1.1" id="Layer_1" xmlns="http://www.w3.org/2000/svg" xmlns:xlink="http://www.w3.org/1999/xlink" x="0px" y="0px"
	 viewBox="0 0 200 210" style="enable-background:new 0 0 200 210;" xml:space="preserve">
<style type="text/css">
	.st0{fill:#FFFFFF;}
</style>
<path class="st0" d="M192.9,70.1c-5.2-12-12.5-22.8-21.7-32s-19.9-16.5-32-21.7C127,11.2,113.8,8.5,100,8.5s-27,2.7-39.2,7.9
	s-23,12.5-32.1,21.7s-16.3,20-21.5,32C2,82.3-0.7,95.5-0.7,109.3c0,13.7,2.6,27,7.9,39.2c5.2,12.1,12.4,22.8,21.6,32
	c9.1,9.2,19.9,16.4,32,21.6C73,207.3,86.2,210,100,210c13.7,0,26.9-2.7,39.2-7.9c12-5.2,22.7-12.4,32-21.6
	c9.2-9.1,16.5-19.9,21.7-32c5.2-12.2,7.9-25.4,7.9-39.2S198.1,82.3,192.9,70.1z M135.7,135.2c2.6,2.6,2.5,6.8,0,9.3s-6.7,2.6-9.3,0
	l-25.9-25.9l-25.9,25.9c-2.5,2.5-6.7,2.6-9.3,0c-2.6-2.6-2.5-6.8,0-9.3l25.9-25.9L65.3,83.4c-2.6-2.6-2.5-6.8,0-9.3s6.8-2.5,9.3,0
	l25.9,25.9l25.9-25.9c2.6-2.6,6.8-2.5,9.3,0c2.6,2.6,2.5,6.8,0,9.3l-25.9,25.9L135.7,135.2z"/>
</svg>
