<?xml version="1.0" encoding="utf-8"?>
<!-- Generator: Adobe Illustrator 21.0.0, SVG Export Plug-In . SVG Version: 6.00 Build 0)  -->
<svg version="1.1" id="Layer_1" xmlns="http://www.w3.org/2000/svg" xmlns:xlink="http://www.w3.org/1999/xlink" x="0px" y="0px"
	 viewBox="0 0 200 200" style="enable-background:new 0 0 200 200;" xml:space="preserve">
<style type="text/css">
	.st0{fill:#FFFFFF;}
</style>
<g>
	<g>
		<g>
			<path class="st0" d="M100,200c-13.8,0-27-2.7-39.2-7.9c-12.1-5.2-22.9-12.4-32-21.6c-9.2-9.2-16.4-19.9-21.6-32
				C1.9,126.3-0.7,113-0.7,99.3c0-13.8,2.7-27,7.9-39.2c5.2-12,12.4-22.8,21.5-32S48.6,11.6,60.8,6.4S86.2-1.5,100-1.5
				s27,2.7,39.2,7.9c12.1,5.2,22.8,12.5,32,21.7s16.5,20,21.7,32c5.2,12.2,7.9,25.4,7.9,39.2s-2.7,27-7.9,39.2
				c-5.2,12.1-12.5,22.9-21.7,32c-9.3,9.2-20,16.4-32,21.6C126.9,197.3,113.7,200,100,200z M100,11.8c-12,0-23.4,2.3-34,6.8
				S46,29.4,38.2,37.4c-8,8-14.3,17.4-18.8,27.9s-6.8,21.9-6.8,33.9s2.3,23.4,6.8,34.1c4.5,10.5,10.8,19.9,18.8,27.9
				c7.9,7.9,17.3,14.3,27.9,18.7c10.6,4.5,22.1,6.8,34,6.8s23.3-2.3,34-6.8c10.5-4.5,19.8-10.8,27.9-18.8c8-8,14.3-17.4,18.8-27.9
				c4.5-10.6,6.8-22.1,6.8-34c0-12-2.3-23.4-6.8-33.9s-10.9-19.9-18.9-27.9S144.5,23.1,134,18.5C123.4,14.1,112,11.8,100,11.8z"/>
		</g>
	</g>
</g>
<path class="st0" d="M109.3,99.3l25.9-25.9c2.5-2.5,2.6-6.7,0-9.3c-2.5-2.5-6.7-2.6-9.3,0L100,90L74.1,64.1c-2.5-2.5-6.8-2.5-9.3,0
	s-2.6,6.7,0,9.3l25.9,25.9l-25.9,25.9c-2.5,2.5-2.6,6.7,0,9.3s6.8,2.5,9.3,0l25.9-25.9l25.9,25.9c2.6,2.6,6.8,2.5,9.3,0
	s2.6-6.7,0-9.3L109.3,99.3z"/>
</svg>
