<?xml version="1.0" encoding="utf-8"?>
<svg version="1.1" id="Layer_1" xmlns="http://www.w3.org/2000/svg" xmlns:xlink="http://www.w3.org/1999/xlink" x="0px" y="0px"
	 viewBox="0 0 35.9 44.6" style="enable-background:new 0 0 35.9 44.6;" xml:space="preserve">
<style type="text/css">
	.st{fill:#FFFFFF;}
</style>
<g>
	<path class="st" d="M34,26.4H1.9c-1,0-1.7-0.8-1.7-1.7S1,23,1.9,23H34c1,0,1.7,0.8,1.7,1.7S35,26.4,34,26.4z"/>
</g>
<g>
	<path class="st" d="M34,34.5H1.9c-1,0-1.7-0.8-1.7-1.7c0-1,0.8-1.7,1.7-1.7H34c1,0,1.7,0.8,1.7,1.7C35.8,33.7,35,34.5,34,34.5z"/>
</g>
<g>
	<path class="st" d="M34,42.7H1.9c-1,0-1.7-0.8-1.7-1.7s0.8-1.7,1.7-1.7H34c1,0,1.7,0.8,1.7,1.7S35,42.7,34,42.7z"/>
</g>
<g>
	<path class="st" d="M34,18.4c-0.4,0-0.9-0.2-1.3-0.5L18,5L3.2,17.9c-0.8,0.7-2,0.6-2.7-0.2c-0.7-0.8-0.6-2,0.2-2.7l16-14
		c0.7-0.6,1.8-0.6,2.5,0l16,14c0.8,0.7,0.9,1.9,0.2,2.7C35.1,18.1,34.6,18.4,34,18.4z"/>
</g>
</svg>
