<?xml version="1.0" encoding="utf-8"?>
<!-- Generator: Adobe Illustrator 21.1.0, SVG Export Plug-In . SVG Version: 6.00 Build 0)  -->
<svg version="1.1" id="Layer_1" xmlns="http://www.w3.org/2000/svg" xmlns:xlink="http://www.w3.org/1999/xlink" x="0px" y="0px"
	 viewBox="0 0 200 200" style="enable-background:new 0 0 200 200;" xml:space="preserve">
<style type="text/css">
	.st0{fill:none;stroke:#3F2E3B;stroke-width:13;stroke-miterlimit:10;}
	.st1{fill:#3F2E3B;}
</style>
<path class="st0" d="M186.7,63.4c-5-11.4-11.6-21.4-20.2-29.9c-8.5-8.5-18.4-15.2-29.9-20.1C125.2,8.4,112.9,6,100,6
	s-25,2.4-36.5,7.4C52.1,18.3,42.2,25,33.6,33.5S18.3,52,13.3,63.4S5.9,87.1,5.9,100c0,13,2.4,25.1,7.4,36.5s11.6,21.3,20.2,29.9
	s18.5,15.3,29.9,20.2S87,194,99.9,194s25.1-2.4,36.6-7.4c11.4-4.9,21.4-11.6,29.9-20.2c8.5-8.6,15.2-18.5,20.1-29.9
	c4.9-11.4,7.4-23.6,7.4-36.5S191.5,74.9,186.7,63.4z"/>
<g>
	<g>
		<polygon class="st1" points="149.1,66.1 99.2,108.5 49.3,66.1 		"/>
	</g>
	<g>
		<polygon class="st1" points="45.6,68.6 83.1,100.4 45.6,129.8 		"/>
	</g>
	<g>
		<polygon class="st1" points="49.7,132 86.4,103.2 99.2,114.2 112,103.2 148.7,132 		"/>
	</g>
	<g>
		<polygon class="st1" points="152.9,129.8 115.4,100.4 152.9,68.6 		"/>
	</g>
</g>
</svg>
