<?xml version="1.0" encoding="utf-8"?>
<!-- Generator: Adobe Illustrator 21.1.0, SVG Export Plug-In . SVG Version: 6.00 Build 0)  -->
<svg version="1.1" id="Layer_1" xmlns="http://www.w3.org/2000/svg" xmlns:xlink="http://www.w3.org/1999/xlink" x="0px" y="0px"
	 viewBox="0 0 200 200" style="enable-background:new 0 0 200 200;" xml:space="preserve">
<style type="text/css">
	.st0{fill:#3F2E3B;}
</style>
<path class="st0" d="M186.7,63.4c-5-11.4-11.6-21.4-20.2-29.9c-8.5-8.5-18.4-15.2-29.9-20.1C125.2,8.4,112.9,6,100,6
	s-25,2.4-36.5,7.4C52.1,18.3,42.2,25,33.6,33.5C25,42,18.3,52,13.3,63.4c-5,11.4-7.4,23.7-7.4,36.6c0,13,2.4,25.1,7.4,36.5
	c5,11.4,11.6,21.3,20.2,29.9c8.6,8.6,18.5,15.3,29.9,20.2c11.4,4.9,23.6,7.4,36.5,7.4c12.9,0,25.1-2.4,36.6-7.4
	c11.4-4.9,21.4-11.6,29.9-20.2c8.5-8.6,15.2-18.5,20.1-29.9c4.9-11.4,7.4-23.6,7.4-36.5C193.9,87.1,191.5,74.9,186.7,63.4z
	 M149.1,66.1l-49.9,42.4L49.3,66.1H149.1z M45.6,68.6l37.5,31.8l-37.5,29.4V68.6z M49.7,132l36.7-28.8l12.8,11l12.8-11l36.7,28.8
	H49.7z M152.9,129.8l-37.5-29.4l37.5-31.8V129.8z"/>
</svg>
