<?xml version="1.0" encoding="utf-8"?>
<!-- Generator: Adobe Illustrator 21.1.0, SVG Export Plug-In . SVG Version: 6.00 Build 0)  -->
<svg version="1.1" id="Layer_1" xmlns="http://www.w3.org/2000/svg" xmlns:xlink="http://www.w3.org/1999/xlink" x="0px" y="0px"
	 viewBox="0 0 200 200" style="enable-background:new 0 0 200 200;" xml:space="preserve">
<style type="text/css">
	.st0{fill:#3F2E3B;}
</style>
<path class="st0" d="M186.7,63.4c-5-11.4-11.6-21.4-20.2-29.9c-8.5-8.5-18.4-15.2-29.9-20.1C125.2,8.4,112.9,6,100,6
	s-25,2.4-36.5,7.4C52.1,18.3,42.2,25,33.6,33.5C25,42,18.3,52,13.3,63.4c-5,11.4-7.4,23.7-7.4,36.6c0,13,2.4,25.1,7.4,36.5
	c5,11.4,11.6,21.3,20.2,29.9c8.6,8.6,18.5,15.3,29.9,20.2c11.4,4.9,23.6,7.4,36.5,7.4c12.9,0,25.1-2.4,36.6-7.4
	c11.4-4.9,21.4-11.6,29.9-20.2c8.5-8.6,15.2-18.5,20.1-29.9c4.9-11.4,7.4-23.6,7.4-36.5C193.9,87.1,191.5,74.9,186.7,63.4z
	 M95.7,75.4l1.5,0.2c17.7,2.8,31.9,16.6,35.1,34.3l0.3,1.5l-4.4,0.8l-0.3-1.5c-2.9-15.8-15.5-28.2-31.5-30.8L95,79.8L95.7,75.4z
	 M132.4,134.2c-1.9,5.1-4.5,10.3-10.7,12.3c-1.6,0.5-3,0.7-4.6,0.7c-1.4,0-2.7-0.2-4-0.6c-7.8-2.2-15.3-6-23.3-11.7
	c-6-4.3-11-8.8-15.2-13.9c-8.3-9.8-13.5-19.4-16.2-29.2c-1.9-7,1.2-13.8,7.7-17c0.9-0.5,3.8-1.7,6.3-2.9l0.5-0.2
	c1.6-0.7,2.9-1.3,3.3-1.6l2-1l12,26L81,99.4c2.8,5.9,14,20.3,24.5,24.2l0.7-1.6c0,0,1.9-4.2,2.5-5.5l1-2l25.6,11.9L132.4,134.2z
	 M143.1,109.4l-0.3-1.5c-4.1-22-21.6-39.2-43.7-42.8L97.6,65l0.7-4.4l1.5,0.2c23.9,4,42.9,22.6,47.3,46.4l0.3,1.5L143.1,109.4z"/>
</svg>
