<?xml version="1.0" encoding="utf-8"?>
<!-- Generator: Adobe Illustrator 21.0.0, SVG Export Plug-In . SVG Version: 6.00 Build 0)  -->
<svg version="1.1" id="Layer_1" xmlns="http://www.w3.org/2000/svg" xmlns:xlink="http://www.w3.org/1999/xlink" x="0px" y="0px"
	 viewBox="0 0 200 200" style="enable-background:new 0 0 200 200;" xml:space="preserve">
<style type="text/css">
	.st0{fill:url(#SVGID_1_);}
</style>
<g>
	<linearGradient id="SVGID_1_" gradientUnits="userSpaceOnUse" x1="1.1025" y1="99.4488" x2="200" y2="99.4488">
		<stop  offset="0" style="stop-color:#3E2C3C"/>
		<stop  offset="0.33" style="stop-color:#9C1D2F"/>
		<stop  offset="0.66" style="stop-color:#DD8028"/>
		<stop  offset="1" style="stop-color:#F3B819"/>
	</linearGradient>
	<path class="st0" d="M100.6,15c46.6,0,84.4,37.9,84.4,84.4c0,46.6-37.9,84.4-84.4,84.4c-46.6,0-84.4-37.9-84.4-84.4
		C16.1,52.9,54,15,100.6,15 M100.6,0C45.6,0,1.1,44.5,1.1,99.4c0,54.9,44.5,99.4,99.4,99.4c54.9,0,99.4-44.5,99.4-99.4
		C200,44.5,155.5,0,100.6,0L100.6,0z"/>
</g>
</svg>
