<?xml version="1.0" encoding="utf-8"?>
<!-- Generator: Adobe Illustrator 21.1.0, SVG Export Plug-In . SVG Version: 6.00 Build 0)  -->
<svg version="1.1" id="Layer_1" xmlns="http://www.w3.org/2000/svg" xmlns:xlink="http://www.w3.org/1999/xlink" x="0px" y="0px"
	 viewBox="0 0 200 200" style="enable-background:new 0 0 200 200;" xml:space="preserve">
<style type="text/css">
	.st0{fill:#BE5732;}
</style>
<g>
	<path class="st0" d="M129.5,137.7H74.8v-11.8l25.1-26.4c3.2-3.7,5.5-6.9,7-9.8c1.5-2.9,2.3-5.4,2.3-7.5c0-3-0.8-5.4-2.3-7.2
		c-1.5-1.8-3.8-2.7-6.8-2.7c-2.7,0-4.9,1.2-6.4,3.5c-1.6,2.3-2.3,5.3-2.3,8.8H73.6l-0.1-0.3c-0.2-7.2,2.2-13.4,7.1-18.4
		c4.9-5,11.4-7.5,19.5-7.5c8.6,0,15.3,2.1,20.1,6.3c4.8,4.2,7.2,10,7.2,17.3c0,4.9-1.3,9.3-3.8,13.1c-2.6,3.8-7.3,9.4-14.2,16.9
		l-10.6,11.3l0.2,0.3h30.5V137.7z"/>
</g>
</svg>
