<?xml version="1.0" encoding="utf-8"?>
<!-- Generator: Adobe Illustrator 21.1.0, SVG Export Plug-In . SVG Version: 6.00 Build 0)  -->
<svg version="1.1" id="Layer_1" xmlns="http://www.w3.org/2000/svg" xmlns:xlink="http://www.w3.org/1999/xlink" x="0px" y="0px"
	 viewBox="0 0 30 30" style="enable-background:new 0 0 30 30;" xml:space="preserve">
<style type="text/css">
	.st0{fill:#FFFFFF;}
</style>
<g>
	<path class="st0" d="M15.7,8.4c0.5,0,1,0,1.3,0.1s0.8,0.2,1.3,0.4l-0.5,2.2c-0.4-0.1-0.8-0.2-1.1-0.3c-0.3-0.1-0.7-0.1-1.1-0.1
		c-0.7,0-1.3,0.2-1.7,0.7c-0.4,0.5-0.6,1.2-0.6,2.2l0,0c0.3-0.3,0.6-0.5,1-0.7s0.9-0.2,1.5-0.2c1.1,0,2,0.4,2.7,1.2
		c0.6,0.8,1,1.9,1,3.2c0,1.3-0.4,2.3-1.3,3.2s-1.9,1.3-3.2,1.3c-1.4,0-2.5-0.5-3.4-1.4s-1.3-2.2-1.3-3.8v-2.6c0-1.7,0.5-3,1.5-4
		C12.9,8.9,14.2,8.4,15.7,8.4z M15.1,15.1c-0.4,0-0.8,0.1-1.1,0.2s-0.5,0.3-0.7,0.5v0.8c0,0.9,0.2,1.6,0.5,2.1
		c0.3,0.5,0.7,0.7,1.3,0.7c0.4,0,0.8-0.2,1.1-0.6c0.3-0.4,0.4-0.9,0.4-1.5c0-0.6-0.1-1.2-0.4-1.5C15.9,15.2,15.6,15.1,15.1,15.1z"/>
</g>
</svg>
