<?xml version="1.0" encoding="utf-8"?>
<!-- Generator: Adobe Illustrator 21.1.0, SVG Export Plug-In . SVG Version: 6.00 Build 0)  -->
<svg version="1.1" id="Layer_1" xmlns="http://www.w3.org/2000/svg" xmlns:xlink="http://www.w3.org/1999/xlink" x="0px" y="0px"
	 viewBox="0 0 30 30" style="enable-background:new 0 0 30 30;" xml:space="preserve">
<style type="text/css">
	.st0{fill:#FFFFFF;}
</style>
<g>
	<path class="st0" d="M10.8,15.7l0.7-7.2H19v2.3H14l-0.3,2.7c0.2-0.2,0.5-0.3,0.8-0.4s0.7-0.2,1.1-0.2c1.3,0,2.2,0.3,2.9,1.1
		s1,1.8,1,3.2c0,1.2-0.4,2.2-1.2,3.1c-0.8,0.8-1.9,1.3-3.3,1.3c-1.2,0-2.3-0.3-3.2-1s-1.3-1.6-1.3-2.7l0-0.1l2.9-0.2
		c0,0.5,0.1,0.9,0.4,1.2c0.3,0.3,0.7,0.4,1.1,0.4c0.5,0,0.9-0.2,1.1-0.6c0.2-0.4,0.3-0.9,0.3-1.4c0-0.7-0.1-1.3-0.4-1.7
		c-0.3-0.4-0.7-0.6-1.2-0.6c-0.4,0-0.7,0.1-1,0.3s-0.4,0.4-0.5,0.6L10.8,15.7z"/>
</g>
</svg>
