<?xml version="1.0" encoding="utf-8"?>
<!-- Generator: Adobe Illustrator 21.1.0, SVG Export Plug-In . SVG Version: 6.00 Build 0)  -->
<svg version="1.1" id="Layer_1" xmlns="http://www.w3.org/2000/svg" xmlns:xlink="http://www.w3.org/1999/xlink" x="0px" y="0px"
	 viewBox="0 0 200 200" style="enable-background:new 0 0 200 200;" xml:space="preserve">
<style type="text/css">
	.st0{fill:#BE5732;}
</style>
<g>
	<path class="st0" d="M90.2,92.4h8.5c3.3,0,5.8-0.9,7.5-2.6c1.8-1.8,2.6-4.2,2.6-7.3c0-2.5-0.8-4.5-2.4-6.2
		c-1.6-1.7-3.9-2.5-6.9-2.5c-2.4,0-4.4,0.7-6.2,2c-1.8,1.4-2.7,3.1-2.7,5.3H73.1L73,80.7c-0.2-6.2,2.2-11.3,7.4-15.1
		c5.1-3.9,11.3-5.8,18.6-5.8c8.5,0,15.3,1.9,20.4,5.8c5.1,3.9,7.6,9.4,7.6,16.5c0,3.5-1.1,6.8-3.3,9.8c-2.2,3-5.1,5.3-8.8,7
		c4.2,1.5,7.5,3.9,9.8,7c2.4,3.1,3.5,6.9,3.5,11.3c0,7.2-2.7,12.8-8.2,16.9c-5.5,4.1-12.5,6.1-21,6.1c-7.3,0-13.8-1.9-19.3-5.8
		c-5.5-3.8-8.2-9.4-8-16.7l0.1-0.3h17.7c0,2.5,1,4.6,2.9,6.3c2,1.7,4.3,2.6,7.1,2.6c3.2,0,5.7-0.9,7.6-2.7c1.9-1.8,2.8-4,2.8-6.8
		c0-3.8-1-6.6-3-8.3c-2-1.7-4.8-2.6-8.4-2.6h-8.5V92.4z"/>
</g>
</svg>
