<?xml version="1.0" standalone="no"?>
<!DOCTYPE svg PUBLIC "-//W3C//DTD SVG 20010904//EN"
 "http://www.w3.org/TR/2001/REC-SVG-20010904/DTD/svg10.dtd">
<svg version="1.0" xmlns="http://www.w3.org/2000/svg"
 width="331.000000pt" height="331.000000pt" viewBox="0 0 331.000000 331.000000"
 preserveAspectRatio="xMidYMid meet">
<metadata>
Created by potrace 1.11, written by Peter Selinger 2001-2013
</metadata>
<g transform="translate(0.000000,331.000000) scale(0.100000,-0.100000)"
fill="#000000" stroke="none">
<path d="M1588 3297 c-15 -7 -44 -28 -65 -47 -21 -19 -70 -62 -108 -95 -39
-33 -72 -62 -75 -65 -3 -3 -36 -32 -75 -65 -38 -33 -74 -65 -80 -71 -5 -5 -44
-39 -85 -75 -41 -35 -91 -78 -110 -95 -19 -17 -78 -68 -130 -114 -52 -45 -122
-106 -155 -136 -33 -29 -69 -61 -81 -71 -301 -261 -358 -313 -371 -344 -49
-116 56 -238 177 -206 36 10 52 21 160 117 36 31 124 108 195 170 135 117 251
218 269 235 6 6 58 51 116 100 58 50 110 95 116 100 6 6 39 35 74 65 35 30 87
75 115 100 111 98 168 145 174 142 3 -2 17 -13 31 -25 14 -12 57 -49 95 -82
39 -33 72 -62 75 -65 5 -5 125 -110 184 -160 16 -14 34 -29 40 -35 65 -58 111
-98 161 -140 32 -27 63 -54 69 -60 10 -9 113 -99 191 -166 33 -29 131 -115
185 -163 140 -125 166 -140 230 -138 52 2 82 18 109 58 32 47 38 111 14 157
-10 21 -93 101 -198 193 -99 86 -196 171 -215 188 -32 28 -177 155 -349 305
-35 31 -69 61 -75 66 -6 6 -63 55 -126 110 -63 55 -117 102 -120 105 -29 33
-237 203 -256 210 -33 13 -73 12 -106 -3z"/>
<path d="M335 1521 c-91 -55 -89 -178 4 -229 35 -19 66 -19 1316 -18 1396 1
1314 -2 1358 57 39 54 16 152 -46 189 -31 19 -60 20 -1317 20 -1234 0 -1286
-1 -1315 -19z"/>
<path d="M340 891 c-80 -42 -96 -151 -31 -211 43 -41 23 -40 1344 -40 1191 0
1274 1 1306 18 50 25 75 63 73 113 -2 54 -28 97 -72 120 -33 18 -85 19 -1310
19 -1225 0 -1277 -1 -1310 -19z"/>
<path d="M339 249 c-66 -34 -91 -112 -55 -176 44 -79 -65 -73 1372 -73 l1281
0 34 23 c86 57 80 175 -10 225 -35 19 -60 20 -1312 19 -1199 0 -1278 -1 -1310
-18z"/>
</g>
</svg>
