<?xml version="1.0" encoding="utf-8"?>
<!-- Generator: Adobe Illustrator 21.0.0, SVG Export Plug-In . SVG Version: 6.00 Build 0)  -->
<svg version="1.1" id="Layer_1" xmlns="http://www.w3.org/2000/svg" xmlns:xlink="http://www.w3.org/1999/xlink" x="0px" y="0px"
	 viewBox="0 0 200 200" style="enable-background:new 0 0 200 200;" xml:space="preserve">
<style type="text/css">
	.st0{fill:#FFFFFF;}
</style>
<g>
	<g>
		<g>
			<path class="st0" d="M100,194.9c-13,0-25.4-2.5-36.9-7.4c-11.4-4.9-21.6-11.7-30.1-20.3c-8.7-8.7-15.4-18.7-20.3-30.1
				c-5-11.5-7.4-24-7.4-36.9c0-13,2.5-25.4,7.4-36.9C17.5,51.8,24.2,41.7,32.8,33S51.6,17.5,63,12.6S87,5.1,100,5.1
				s25.4,2.5,36.9,7.4c11.4,4.9,21.5,11.8,30.1,20.4c8.7,8.7,15.5,18.8,20.4,30.1c4.9,11.5,7.4,23.9,7.4,36.9s-2.5,25.4-7.4,36.9
				c-4.9,11.4-11.8,21.6-20.4,30.1c-8.8,8.7-18.8,15.4-30.1,20.3C125.3,192.3,112.9,194.9,100,194.9z M100,17.6
				c-11.3,0-22,2.2-32,6.4S49.1,34.2,41.8,41.8C34.2,49.3,28.3,58.1,24.1,68s-6.4,20.6-6.4,31.9s2.2,22,6.4,32.1
				c4.2,9.9,10.2,18.7,17.7,26.3c7.4,7.4,16.3,13.5,26.3,17.6c10,4.2,20.8,6.4,32,6.4s21.9-2.2,32-6.4c9.9-4.2,18.6-10.2,26.3-17.7
				c7.5-7.5,13.5-16.4,17.7-26.3c4.2-10,6.4-20.8,6.4-32c0-11.3-2.2-22-6.4-31.9s-10.3-18.7-17.8-26.3S141.9,28.3,132,24
				C122,19.8,111.3,17.6,100,17.6z"/>
		</g>
	</g>
</g>
<path class="st0" d="M86.4,147.2c-1.5,1.3-3.5,2.2-5.5,2.2c-1.5,0-3.5-0.4-5-1.8c-2.9-2.2-3.5-6.7-0.5-9.5l36.8-38.3L75.4,61.6
	C73,59,73,54.4,75.9,52.2c2.9-2.2,8-2.2,10.5,0.4l45.8,47.3L86.4,147.2z"/>
</svg>
