<?xml version="1.0" encoding="utf-8"?>
<!-- Generator: Adobe Illustrator 21.0.0, SVG Export Plug-In . SVG Version: 6.00 Build 0)  -->
<svg version="1.1" id="Layer_1" xmlns="http://www.w3.org/2000/svg" xmlns:xlink="http://www.w3.org/1999/xlink" x="0px" y="0px"
	 viewBox="0 0 83.1 67.5" style="enable-background:new 0 0 83.1 67.5;" xml:space="preserve">
<style type="text/css">
	.st0{fill:url(#SVGID_1_);}
	.st1{fill:url(#SVGID_2_);}
</style>
<linearGradient id="SVGID_1_" gradientUnits="userSpaceOnUse" x1="0" y1="33.7345" x2="83.0988" y2="33.7345">
	<stop  offset="0" style="stop-color:#3E2C3C"/>
	<stop  offset="0.33" style="stop-color:#9C1D2F"/>
	<stop  offset="0.66" style="stop-color:#DD8028"/>
	<stop  offset="1" style="stop-color:#F3B819"/>
</linearGradient>
<path class="st0" d="M83.1,67.5H0V0h83.1V67.5z M0.8,66.7h81.5V0.8H0.8V66.7z"/>
<g>
	<linearGradient id="SVGID_2_" gradientUnits="userSpaceOnUse" x1="41.5494" y1="46.3068" x2="41.5494" y2="20.1642">
		<stop  offset="0" style="stop-color:#3E2C3C"/>
		<stop  offset="0.33" style="stop-color:#9B1D30"/>
		<stop  offset="0.66" style="stop-color:#DC8028"/>
		<stop  offset="1" style="stop-color:#F1B71B"/>
	</linearGradient>
	<path class="st1" d="M22.2,47.5c-0.1,0-0.1,0-0.2-0.1c-0.4-0.1-1.1-0.3-2.7-0.8c-0.2,0-0.3-0.2-0.3-0.4v-17c0-0.1,0-0.2,0.1-0.3
		l2-2.1c0,0,0.1-0.1,0.2-0.1c0.1,0,0.1,0,0.2,0l6.8,1.1v-7.2h-3.2c-0.2,0-0.4-0.2-0.4-0.4s0.2-0.4,0.4-0.4h9.5
		c0.2,0,0.4,0.2,0.4,0.4s-0.2,0.4-0.4,0.4h-2.8v7.8l17.4,2.8v-3.7H46c-0.2,0-0.4-0.2-0.4-0.4s0.2-0.4,0.4-0.4h9.5
		c0.2,0,0.4,0.2,0.4,0.4s-0.2,0.4-0.4,0.4h-2.9v4.2c0,0,0,0,0,0l10.1,1.6c0.1,0,0.2,0.1,0.3,0.2c0,0.1,1.1,1.9,1,3.9
		c0,0.7-0.2,1.4-0.4,2.1c-0.2,0.7-0.4,1.4-0.4,2.1c0,0,0,0,0,0c0,0,0,0.1,0,0.1c0,0.4,0.1,0.8,0.2,1.3c0,0.1,0,0.2,0,0.3
		c-0.1,0.1-0.2,0.2-0.3,0.2L22.2,47.5C22.3,47.5,22.3,47.5,22.2,47.5z M22.1,27.7c0.6,1.3,1.9,4.3,1.7,7.3c-0.1,1.5-0.5,2.9-0.8,4.3
		c-0.6,2.3-1.2,4.7-0.5,7.3l1.8-0.2c-0.8-2.7-0.1-5.1,0.5-7.4c0.4-1.4,0.7-2.7,0.8-4c0.2-3.3-1.4-6.4-1.8-7.1L22.1,27.7z M19.9,46.1
		c0.6,0.2,1.3,0.4,1.8,0.5c-0.7-2.7,0-5.1,0.6-7.4c0.4-1.4,0.7-2.8,0.8-4.1c0.2-3-1.1-6-1.7-7.1l-1.5,1.6V46.1z M24.8,44.5
		c0,0.7,0.1,1.3,0.4,2l37.4-3.6c-0.1-0.2-0.1-0.5-0.1-0.7L24.8,44.5z M25.1,41c-0.2,0.9-0.4,1.8-0.4,2.7l37.7-2.3
		c0-0.3,0.1-0.6,0.1-0.9L25.1,41z M26,37.5c-0.1,0.6-0.3,1.2-0.4,1.8c-0.1,0.3-0.2,0.6-0.2,0.9l37.4-0.5c0-0.1,0.1-0.2,0.1-0.4
		c0-0.2,0.1-0.4,0.1-0.5L26,37.5z M26.2,36.8l37,1.3c0-0.2,0.1-0.4,0.1-0.6c0-0.1,0-0.2,0-0.3l-36.9-3c0,0.3,0,0.7,0,1
		C26.3,35.7,26.3,36.2,26.2,36.8z M26.3,33.4l36.9,3c0-0.2-0.1-0.5-0.2-0.7l-37.3-5C26,31.5,26.2,32.4,26.3,33.4z M25.5,29.9l37.3,5
		c-0.1-0.3-0.2-0.5-0.3-0.7l-37.7-6C25,28.6,25.2,29.2,25.5,29.9z M50.1,31.4l1.8,0.3v-4.1h-1.8V31.4z M29.1,28.1l2,0.3v-7.7h-2
		V28.1z"/>
</g>
</svg>
