<?xml version="1.0" encoding="utf-8"?>
<!-- Generator: Adobe Illustrator 21.0.0, SVG Export Plug-In . SVG Version: 6.00 Build 0)  -->
<svg version="1.1" id="Layer_1" xmlns="http://www.w3.org/2000/svg" xmlns:xlink="http://www.w3.org/1999/xlink" x="0px" y="0px"
	 viewBox="0 0 83.1 67.5" style="enable-background:new 0 0 83.1 67.5;" xml:space="preserve">
<style type="text/css">
	.st0{fill:#3F2E3B;}
</style>
<path class="st0" d="M52.6,15.3c-0.6,0-0.6-1,0-1C53.2,14.3,53.2,15.3,52.6,15.3z M58.2,16.6c-0.6,0-0.6-1,0-1
	C58.9,15.6,58.9,16.6,58.2,16.6z M49.3,14c-0.6,0-0.6-1,0-1S49.9,14,49.3,14z M42.3,16.6c-0.6,0-0.6-1,0-1
	C43,15.6,43,16.6,42.3,16.6z M38.7,13.6c-0.6,0-0.6-1,0-1C39.3,12.7,39.3,13.6,38.7,13.6z M32.4,13.6c-0.6,0-0.6-1,0-1
	C33,12.7,33,13.6,32.4,13.6z M43.7,10.2c-0.6,0-0.6,1,0,1C44.3,11.2,44.3,10.2,43.7,10.2z M31.2,14.6c-0.6,0-0.6,1,0,1
	C31.9,15.6,31.9,14.6,31.2,14.6z M36.7,14.5c-0.6,0-0.6,1,0,1C37.4,15.5,37.4,14.5,36.7,14.5z M45.8,14.1c-0.6,0-0.6,1,0,1
	C46.5,15.1,46.5,14.1,45.8,14.1z M48.5,15.5c-0.6,0-0.6,1,0,1S49.1,15.5,48.5,15.5z M42.3,13.6c-0.6,0-0.6,1,0,1
	C43,14.6,43,13.6,42.3,13.6z M57.4,41.6c-0.6,0-0.6,1,0,1S58,41.6,57.4,41.6z M57.6,23.2c-0.6,0-0.6,1,0,1
	C58.2,24.2,58.2,23.2,57.6,23.2z M58.6,28.7c0.6,0,0.6-1,0-1C57.9,27.7,57.9,28.7,58.6,28.7z M57.7,21.6c0.6,0,0.6-1,0-1
	C57.1,20.6,57.1,21.6,57.7,21.6z M56.7,14.3c0.6,0,0.6-1,0-1C56.1,13.3,56.1,14.3,56.7,14.3z M63.4,40.7c-0.1,0.6-0.3,0.9-0.6,1.4
	c-0.7,1.1-1.4,2.3-2.1,3.4l-0.1,0.1l0,0l0,0l0,0c-0.1,0.1-0.2,0.1-0.3,0.1c-1.3,0-2.5,0-3.8,0c-0.1,0-0.2,0-0.3,0v5.7
	c0,0.3-0.2,0.5-0.5,0.5h-5.5v6.5c0,0.3-0.2,0.5-0.5,0.5h-5.3l0,0l0,0H39l0,0h-5.3l0,0h-5.3l0,0h-5.3l0,0h-3.6
	C19.2,59,19,58.8,19,58.5v-1.7l0,0V46.3l0,0V41l0,0v-5.3l0,0v-5.3l0,0v-5.3c0-0.3,0.2-0.5,0.5-0.5h5.3l0,0H25V18
	c0-0.3,0.2-0.5,0.5-0.5h4.1v-5.7c0-0.2,0.1-0.3,0.2-0.4c1.2-0.6,3-1.7,3.7-2.2C33.8,9.1,34,9,34.3,9h28.6c0.2,0,0.4,0.1,0.5,0.3
	c0,0.1,0.1,0.2,0,0.3c0,1.7,0,3.4,0,5.1c0,6.7,0,13.4,0,20.1C63.4,36.7,63.6,38.8,63.4,40.7z M20,29.2l3.6-3.6H20V29.2z M20,34.5
	l8.9-8.9H25l-5,5V34.5z M20,39.8l14.2-14.2h-3.9L20,35.9V39.8z M20,45.1l19.5-19.5h-3.9L20,41.2V45.1z M20,50.4l24.8-24.8h-3.9
	L20,46.5V50.4z M49.1,54.4L45.5,58h3.6V54.4z M49.1,49.1L40.2,58h3.9l5-5V49.1z M49.1,43.8L34.9,58h3.9l10.3-10.3
	C49.1,47.7,49.1,43.8,49.1,43.8z M49.1,38.5L29.6,58h3.9l15.6-15.6V38.5z M49.1,33.2L24.3,58h3.9l20.9-20.9V33.2z M49.1,27.9
	L20,57.1v1h2.9l26.2-26.2V27.9z M49.1,25.6h-2.9L20.3,51.4c-0.1,0.1-0.2,0.1-0.4,0.1v4.1L49,26.5L49.1,25.6L49.1,25.6z M55.1,18.5
	H26v6h4.1l0,0h5.3l0,0h5.3l0,0H46l0,0h3.6c0.3,0,0.5,0.2,0.5,0.5v1.7l0,0V32l0,0v5.3l0,0v5.3l0,0v5.3l0,0V51h5V18.5z M59.7,12.3
	c-1.1,0-2.2,0-3.3,0c-8.6,0-17.2,0-25.8,0c0,1.2,0,4,0,5.2h3.5c-0.3-0.2-0.2-0.9,0.3-0.9s0.6,0.7,0.3,0.9h3.9
	c-0.2-0.3,0-0.7,0.4-0.7c0.4,0,0.6,0.5,0.4,0.7H50c0.1-0.1,0.2-0.2,0.4-0.2c0.2,0,0.3,0.1,0.4,0.2h4.7c0.3,0,0.5,0.2,0.5,0.5v0.9
	c0.1-0.1,0.2-0.1,0.3-0.1c0.6,0,0.6,1,0,1c-0.1,0-0.3-0.1-0.3-0.1v25.1c1.2,0,2.4,0,3.6,0c0-1.2,0-2.4,0-3.7
	C59.7,31.5,59.7,21.9,59.7,12.3z M61.5,10c-1.1,0-2.3,0-3.4,0c-1.9,0-3.8,0-5.7,0c0.1,0.3-0.1,0.7-0.5,0.7s-0.5-0.4-0.5-0.7
	c-3.8,0-7.6,0-11.4,0c-1,0-1.9,0-2.9,0c0.1,0.3,0,0.7-0.4,0.7c-0.4,0-0.6-0.4-0.4-0.7c-0.5,0-1.1,0-1.6,0c-0.1,0-0.2,0-0.2,0
	c-0.3,0.1-0.7,0.4-1,0.6c-0.5,0.2-0.9,0.5-1.4,0.7c0.6,0,1.2,0,1.8,0c7.1,0,14.1,0,21.2,0c0-0.2,0.2-0.5,0.5-0.5s0.5,0.2,0.5,0.5
	c1.3,0,2.6,0,4,0C60.5,10.9,61,10.4,61.5,10z M62.4,40.1c0-0.8,0-1.6,0-2.4c-0.1,0.1-0.2,0.1-0.3,0.1c-0.6,0-0.6-1,0-1
	c0.1,0,0.3,0.1,0.3,0.1c0-1.8,0-3.5,0-5.3c0,0-0.1,0-0.2,0c-0.6,0-0.6-1,0-1c0.1,0,0.1,0,0.2,0c0-6.7,0-13.4,0-20.1
	c-0.6,0.5-1.1,1-1.7,1.4c0,1.3,0,2.6,0,3.9c0,0.3,0,0.7,0,1c0,0,0.1,0,0.2,0c0.6,0,0.6,1,0,1c-0.1,0-0.1,0-0.2,0c0,2.3,0,4.5,0,6.8
	c0.6,0,0.6,1,0,1c0,0.1,0,14.5,0,17.7c0.5-0.8,0.9-1.6,1.5-2.3c0.1-0.1,0.2-0.3,0.2-0.3C62.4,40.6,62.4,40.3,62.4,40.1z M61.7,22.1
	c-0.6,0-0.6,1,0,1S62.3,22.1,61.7,22.1z M56.9,38.1c-0.6,0-0.6,1,0,1S57.5,38.1,56.9,38.1z M58.1,36.2c0.6,0,0.6-1,0-1
	C57.4,35.2,57.4,36.2,58.1,36.2z M58.4,43.3c-0.6,0-0.6,1,0,1S59,43.3,58.4,43.3z M56.9,32.2c0.6,0,0.6-1,0-1
	C56.3,31.2,56.3,32.2,56.9,32.2z"/>
<path class="st0" d="M83.1,67.5H0V0h83.1V67.5z M0.8,66.7h81.5V0.8H0.8V66.7z"/>
</svg>
