<?xml version="1.0" encoding="utf-8"?>
<!-- Generator: Adobe Illustrator 21.0.0, SVG Export Plug-In . SVG Version: 6.00 Build 0)  -->
<svg version="1.1" id="Layer_1" xmlns="http://www.w3.org/2000/svg" xmlns:xlink="http://www.w3.org/1999/xlink" x="0px" y="0px"
	 viewBox="0 0 83.1 67.5" style="enable-background:new 0 0 83.1 67.5;" xml:space="preserve">
<style type="text/css">
	.st0{fill:url(#SVGID_1_);}
	.st1{fill:#3F2E3B;}
	.st2{fill:url(#SVGID_2_);}
</style>
<linearGradient id="SVGID_1_" gradientUnits="userSpaceOnUse" x1="0" y1="33.7345" x2="83.0988" y2="33.7345">
	<stop  offset="0" style="stop-color:#3E2C3C"/>
	<stop  offset="0.33" style="stop-color:#9C1E32"/>
	<stop  offset="0.66" style="stop-color:#DC8029"/>
	<stop  offset="1" style="stop-color:#F0B71C"/>
</linearGradient>
<path class="st0" d="M83.1,67.5H0V0h83.1V67.5z M0.8,66.7h81.5V0.8H0.8V66.7z"/>
<g>
	<text transform="matrix(1 0 0 1 -263.7354 125.2527)" class="st1" style="font-family:'Roboto-Black'; font-size:16.9761px;">ThermaFloor</text>
</g>
<linearGradient id="SVGID_2_" gradientUnits="userSpaceOnUse" x1="24.3831" y1="33.4485" x2="57.87" y2="33.4485">
	<stop  offset="0" style="stop-color:#3E2C3C"/>
	<stop  offset="0.33" style="stop-color:#9B1D30"/>
	<stop  offset="0.66" style="stop-color:#DC8028"/>
	<stop  offset="1" style="stop-color:#F1B71B"/>
</linearGradient>
<path class="st2" d="M57.8,13.6C57.8,13.6,57.8,13.6,57.8,13.6C57.8,13.6,57.8,13.6,57.8,13.6C57.7,13.6,57.7,13.6,57.8,13.6
	C57.7,13.5,57.7,13.5,57.8,13.6C57.7,13.5,57.7,13.5,57.8,13.6L57.8,13.6c-0.1-0.1-0.2-0.1-0.3-0.1l-16.3-1.2c0,0,0,0-0.1,0
	l-16.3,1.2c-0.2,0-0.4,0.2-0.4,0.4v1.5c0,0.2,0.1,0.4,0.3,0.4l16.4,2.4c0,0,0,0,0.1,0h0c0,0,0,0,0,0l0,0h0h0c0,0,0,0,0,0
	c0,0,0,0,0,0c0,0,0,0,0.1,0l16.3-2.4c0.2,0,0.3-0.2,0.3-0.4v-1.5C57.9,13.8,57.8,13.7,57.8,13.6z M40.8,17.3L25.2,15v-0.7L40.8,16
	V17.3z M41.2,15.3l-12-1.3l11.9-0.9L53.1,14L41.2,15.3z M57.1,15l-15.5,2.3V16l15.5-1.7V15z M40.9,34.9L51,32
	c0.2-0.1,0.4,0.1,0.5,0.3c0.1,0.2-0.1,0.4-0.3,0.5l-10.1,2.9c0,0-0.1,0-0.1,0c-0.2,0-0.3-0.1-0.4-0.3C40.6,35.2,40.7,35,40.9,34.9z
	 M44.6,31.3l-9.3,2.5c0,0-0.1,0-0.1,0c-0.2,0-0.3-0.1-0.4-0.3c-0.1-0.2,0.1-0.4,0.3-0.5l9.3-2.5c0.2-0.1,0.4,0.1,0.5,0.3
	S44.8,31.3,44.6,31.3z M38.5,33.8l8.7-2.4c0.2-0.1,0.4,0.1,0.5,0.3c0.1,0.2-0.1,0.4-0.3,0.5l-8.7,2.4c0,0-0.1,0-0.1,0
	c-0.2,0-0.3-0.1-0.4-0.3C38.2,34.1,38.3,33.9,38.5,33.8z M57.7,20.5c0-0.2-0.2-0.4-0.3-0.4L41.2,18c0,0-0.1,0-0.1,0l-16.2,2.1
	c-0.2,0-0.3,0.2-0.3,0.4c0,0.2,0.1,0.4,0.3,0.4l14.7,2.5l-14.7,2.7c-0.2,0-0.3,0.2-0.3,0.4c0,0.2,0.1,0.4,0.3,0.4l11.3,2.6L24.8,32
	c-0.2,0-0.3,0.2-0.3,0.4c0,0.2,0.1,0.3,0.3,0.4l6.4,1.9l-6.3,1.8c-0.2,0-0.5,0.2-0.5,0.4V39c0,0.2,0.1,0.3,0.2,0.4l4.9,2L24.8,43
	c-0.2,0.1-0.3,0.2-0.3,0.4c0,0,0,0,0,0.1c0,0,0,0,0,0v2.9c0,0.2,0.1,0.3,0.2,0.4L41,54.6c0.1,0,0.1,0,0.2,0c0.1,0,0.1,0,0.2,0
	l16.1-7.8c0.1-0.1,0.2-0.2,0.2-0.4v-3c0,0,0,0,0,0c0-0.1,0-0.2-0.1-0.3c0,0,0,0-0.1-0.1c0,0-0.1,0-0.1-0.1l-4.8-1.7l4.9-2
	c0.1-0.1,0.2-0.2,0.2-0.4v-2.1c0,0,0,0,0,0c0-0.1,0-0.2-0.1-0.3l0,0c0,0,0,0,0,0c0,0,0,0-0.1-0.1c0,0-0.1-0.1-0.1-0.1l-6.2-1.8
	l6.4-1.9c0.2-0.1,0.3-0.2,0.3-0.4c0-0.2-0.1-0.3-0.3-0.4l-10.8-2.6l10.8-2.6c0.2,0,0.3-0.2,0.3-0.4c0-0.2-0.1-0.3-0.3-0.4l-14.7-2.7
	l14.7-2.5C57.6,20.9,57.8,20.7,57.7,20.5z M25.2,38.7v-1.3l15.4,5.9V45l-9.8-4c0,0-0.1,0-0.1,0L25.2,38.7z M40.6,51v2.5l-15.3-7.3
	V44l6.9,3.1c-0.2,0.2-0.1,0.7,0.3,0.7c0.3,0,0.4-0.2,0.4-0.4L40.6,51C40.6,50.9,40.6,50.9,40.6,51z M56.8,45c-0.5,0-0.5,0.8,0,0.8
	v0.4l-8.7,4.2c0-0.2-0.2-0.3-0.4-0.3c-0.4,0-0.5,0.4-0.3,0.6l-6.1,2.9c0,0,0,0,0,0V51l10.1-4.6c-0.2,0.2-0.2,0.7,0.2,0.7
	c0.5,0,0.5-0.8,0-0.8c0,0-0.1,0-0.1,0l5.1-2.3V45z M56.1,43.5l-15.1,6.8L26,43.5l4.6-1.7l0.6,0.2c-0.3,0.2-0.3,0.8,0.2,0.8
	c0.3,0,0.4-0.3,0.4-0.5l2.2,0.9c0,0,0,0,0,0c-0.5,0-0.5,0.8,0,0.8c0.4,0,0.5-0.5,0.3-0.7l6.7,2.8c0,0,0.1,0,0.1,0h0h0c0,0,0,0,0,0h0
	c0.1,0,0.1,0,0.1,0l3.3-1.4c0,0.2,0.2,0.3,0.4,0.3c0.3,0,0.5-0.3,0.3-0.6l4.8-2c0,0.2,0.1,0.4,0.4,0.4c0.4,0,0.5-0.5,0.3-0.7
	l0.8-0.3L56.1,43.5z M56.8,38.7L51.3,41c0,0-0.1,0-0.1,0l-9.8,4v-1.7l15.4-5.9V38.7z M56,36.9l-14.9,5.7c0,0-0.1,0-0.1,0
	c0,0,0,0,0,0l-14.8-5.6l6.4-1.8l8.4,2.6c0.1,0,0.2,0,0.2,0l8.5-2.6L56,36.9z M55.8,32.4l-14.7,4.5l-14.7-4.5l11.5-2.6l1.9,0.4
	l-7.9,2c-0.2,0.1-0.3,0.3-0.3,0.5c0.1,0.2,0.3,0.3,0.5,0.3l12.9-3.2L55.8,32.4z M55.4,26.5l-13.9,3.3l-14.6-3.3l14.2-2.6L55.4,26.5z
	 M41.1,22.8l-13.5-2.3l13.5-1.7l13.5,1.7L41.1,22.8z M39.4,48.4c-0.5,0-0.5-0.8,0-0.8C40,47.6,40,48.4,39.4,48.4z M35.4,46.5
	c-0.5,0-0.5-0.8,0-0.8C35.9,45.7,35.9,46.5,35.4,46.5z M38.3,46.3c-0.5,0-0.5-0.8,0-0.8C38.8,45.5,38.8,46.3,38.3,46.3z M31.6,45.4
	c-0.5,0-0.5-0.8,0-0.8C32.2,44.6,32.2,45.4,31.6,45.4z M26.6,46.4c-0.5,0-0.5-0.8,0-0.8C27.1,45.6,27.1,46.4,26.6,46.4z M43.3,45.6
	c0.5,0,0.5,0.8,0,0.8C42.8,46.4,42.8,45.6,43.3,45.6z M41.3,48.9c-0.5,0-0.5-0.8,0-0.8C41.8,48.1,41.8,48.9,41.3,48.9z M40.5,46.8
	c-0.5,0-0.5-0.8,0-0.8C41,46,41,46.8,40.5,46.8z M43.4,48.4c-0.5,0-0.5-0.8,0-0.8C43.9,47.6,43.9,48.4,43.4,48.4z M42.6,51.8
	c-0.5,0-0.5-0.8,0-0.8C43.2,51,43.2,51.8,42.6,51.8z M37.3,47.8c-0.5,0-0.5-0.8,0-0.8C37.8,47,37.8,47.8,37.3,47.8z M28.8,44
	c-0.5,0-0.5-0.8,0-0.8C29.3,43.2,29.3,44,28.8,44z M29.9,47.8c-0.5,0-0.5-0.8,0-0.8C30.4,47,30.4,47.8,29.9,47.8z M33.5,45.9
	c-0.5,0-0.5-0.8,0-0.8C34,45.1,34,45.9,33.5,45.9z M38,51.2c0.5,0,0.5,0.8,0,0.8C37.5,52,37.5,51.2,38,51.2z M45.1,46.6
	c-0.5,0-0.5-0.8,0-0.8C45.6,45.8,45.6,46.6,45.1,46.6z M36.3,49.5c0.5,0,0.5,0.8,0,0.8C35.8,50.3,35.8,49.5,36.3,49.5z M48.3,45.8
	c-0.5,0-0.5-0.8,0-0.8C48.8,45,48.8,45.8,48.3,45.8z M49.9,49c-0.5,0-0.5-0.8,0-0.8C50.4,48.2,50.4,49,49.9,49z M45.7,50.3
	c-0.5,0-0.5-0.8,0-0.8C46.2,49.5,46.2,50.3,45.7,50.3z M48.8,44c-0.5,0-0.5-0.8,0-0.8C49.4,43.2,49.4,44,48.8,44z M51,44.2
	c-0.5,0-0.5-0.8,0-0.8C51.5,43.4,51.5,44.2,51,44.2z M54.2,43.2c0.5,0,0.5,0.8,0,0.8C53.6,44,53.6,43.2,54.2,43.2z M53.9,46.4
	c0.5,0,0.5,0.8,0,0.8C53.4,47.1,53.4,46.4,53.9,46.4z"/>
</svg>
