<?xml version="1.0" encoding="utf-8"?>
<!-- Generator: Adobe Illustrator 21.0.0, SVG Export Plug-In . SVG Version: 6.00 Build 0)  -->
<svg version="1.1" id="Layer_1" xmlns="http://www.w3.org/2000/svg" xmlns:xlink="http://www.w3.org/1999/xlink" x="0px" y="0px"
	 viewBox="0 0 118.4 39.9" style="enable-background:new 0 0 118.4 39.9;" xml:space="preserve">
<style type="text/css">
	.st0{fill:#9C1F2E;}
	.st1{fill:#DD7F0A;}
	.st2{fill:#FAB509;}
	.st3{fill:#752F43;}
	.st4{fill:#3F2E3B;}
</style>
<g>
	<g>
		<g>
			<path class="st0" d="M31.4,24.2H3.3c-0.8,0-1.5-0.7-1.5-1.5c0-0.8,0.7-1.5,1.5-1.5h28.1c0.8,0,1.5,0.7,1.5,1.5
				C33,23.6,32.3,24.2,31.4,24.2z"/>
		</g>
		<g>
			<path class="st1" d="M31.4,31.4H3.3c-0.8,0-1.5-0.7-1.5-1.5s0.7-1.5,1.5-1.5h28.1c0.8,0,1.5,0.7,1.5,1.5S32.3,31.4,31.4,31.4z"/>
		</g>
		<g>
			<path class="st2" d="M31.4,38.6H3.3c-0.8,0-1.5-0.7-1.5-1.5c0-0.8,0.7-1.5,1.5-1.5h28.1c0.8,0,1.5,0.7,1.5,1.5
				C33,37.9,32.3,38.6,31.4,38.6z"/>
		</g>
		<g>
			<path class="st3" d="M31.4,17.2c-0.4,0-0.8-0.1-1.1-0.4l-13-11.3l-13,11.3c-0.7,0.6-1.8,0.5-2.4-0.2c-0.6-0.7-0.5-1.8,0.2-2.4
				L16.2,2c0.6-0.6,1.6-0.6,2.2,0l14.1,12.3c0.7,0.6,0.8,1.7,0.2,2.4C32.4,17,31.9,17.2,31.4,17.2z"/>
		</g>
	</g>
	<g>
		<path class="st4" d="M39.9,9.3H36c-0.4,0-0.6-0.2-0.4-0.7c0.2-0.8,0.5-1.1,0.8-1.4c0.4,0.1,1,0.1,3.1,0.1h8
			c-0.1,1.4-0.8,2-1.3,2.1H43v8.9c0,1.5,0,2.2,0.1,2.7c-0.7,0.1-1.6,0.2-2.7,0.2c-0.4,0-0.5-0.1-0.5-0.4V9.3z"/>
		<path class="st4" d="M57.5,12.8V7.9c0-0.5,0.2-0.6,0.6-0.6c0.6,0,1.8-0.1,2.6-0.1c0,0.8-0.1,2.2-0.1,4v7.1c0,1.5,0,2.3,0.1,2.7
			c-0.5,0.1-2.1,0.2-2.7,0.2c-0.4,0-0.5-0.1-0.5-0.4v-5.9c-0.4,0-1.1,0.1-2.2,0.1h-3.1v5.6c0,0.5-0.2,0.6-0.7,0.6
			c-0.6,0.1-2,0.1-2.5,0.1c0-0.9,0.1-2.2,0.1-4v-7c0-1.5,0-2.4-0.1-2.8c0.7-0.1,2.2-0.2,2.7-0.2c0.4,0,0.5,0.2,0.5,1.2v4.4H57.5z"/>
		<path class="st4" d="M63.8,10.3c0-1.1,0-1.8-0.1-2.8c0.7-0.2,1.8-0.3,2.9-0.3c0.9,0,3.5,0,5.2,0c-0.2,1.2-0.5,1.6-0.7,1.9
			c-0.4,0.1-1.2,0.1-2.2,0.1H67v3.6h4.6c-0.2,1.7-0.7,2.1-1.5,2.1H67v4c0.5,0.1,1,0.1,1.8,0.1c0.8,0,2.6,0,3.7-0.1l0,0
			c-0.2,1.1-0.7,1.6-1.3,2c-0.3,0.1-1.4,0.1-3.1,0.1c-2,0-3.4-0.1-3.9-0.2l-0.4-0.4V10.3z"/>
		<path class="st4" d="M77.4,20.4c0,0.4-0.2,0.5-0.5,0.6c-0.6,0.1-2.1,0.1-2.6,0.1c0-0.9,0.1-2.2,0.1-4V9.7c0-1.1,0-1.6,0-2.2
			c0.5-0.1,3-0.4,4-0.4c3.8,0,5.5,1.3,5.5,4c0,2-1.7,3-2.6,3.5c0.5,0.4,1.2,1.6,1.9,2.9c1,1.8,1.6,2.7,2.2,3.4v0.1
			c-0.2,0.1-1.1,0.2-2,0.2c-0.9,0-1.5-0.2-2.1-0.9c-0.5-0.6-1-1.6-1.9-3.5c-0.6-1.2-1-1.3-1.5-1.3c-0.1,0-0.2,0-0.3,0V20.4z
			 M77.4,13.7c0.5,0.1,1.7,0,2-0.2c0.3-0.2,1.1-0.7,1.1-2.1c0-1.7-1-2.5-2.3-2.5c-0.3,0-0.6,0-0.8,0V13.7z"/>
		<path class="st4" d="M97.5,7.5c0.4-0.2,2.1-0.4,2.7-0.4c0.2,0,0.4,0.1,0.5,0.7l1.1,8c0.3,2.3,0.5,3.9,0.7,5
			c-0.4,0.1-2,0.2-2.5,0.2c-0.3,0-0.6-0.1-0.7-0.6c-0.1-1.1-0.2-2.4-0.5-4.8l-0.5-5c-0.5,1.8-1.6,5.2-3,9.3
			c-0.2,0.5-0.4,0.7-0.9,0.8c-0.5,0.1-1,0.2-1.6,0.2c-0.5-1.5-2.3-7.4-3.2-10.2c-0.2,2.5-0.7,7.3-1.1,10c0,0.2-0.2,0.4-0.4,0.4
			c-0.7,0-1.9,0-2.3-0.2c0.4-2.4,1.2-8,2-13.1l0-0.4c0.6-0.1,1.5-0.4,2.7-0.4c0.4,0,0.5,0.1,0.8,1.1l2.9,8.1
			c0.9-2.5,2.3-6.3,3.2-8.6V7.5z"/>
		<path class="st4" d="M108,17.4c-0.4,1.1-1,2.7-1.3,3.3c-0.1,0.2-0.3,0.3-0.7,0.3c-0.6,0-1.7-0.1-2.2-0.3l0-0.1
			c1.1-2.7,4.4-10.8,5.3-12.9L109,7.4c1-0.2,2.4-0.3,2.7-0.3c0.2,0,0.4,0.1,0.5,0.4c1,2.5,2.6,6.6,3.3,8.5c0.9,2.4,1.4,3.7,1.9,4.7
			l0,0.1c-0.5,0.2-2.3,0.3-2.8,0.3c-0.4,0-0.6-0.1-0.8-0.7c-0.4-1.1-0.7-1.9-1-2.9H108z M112.1,15.4c-0.9-2.6-1.5-4.2-1.7-4.8
			c-0.4,1.3-1,3-1.7,4.8H112.1z"/>
		<path class="st4" d="M49.7,30.4v-5.3c0-0.4,0.1-0.5,0.5-0.5c0.4-0.1,1.1-0.1,1.6-0.1c0,0.8-0.1,2.1-0.1,4v7.1c0,1.5,0,2.3,0.1,2.7
			c-0.4,0.1-1.4,0.2-1.7,0.2c-0.2,0-0.4-0.1-0.4-0.4v-6.2c-0.4,0-1.2,0.1-3.1,0.1h-4v5.9c0,0.4-0.1,0.5-0.6,0.6
			c-0.5,0.1-1,0.1-1.5,0.1c0-0.9,0.1-2.2,0.1-4v-7c0-1.5,0-2.4-0.1-2.8c0.4-0.1,1.3-0.2,1.7-0.2c0.3,0,0.4,0.2,0.4,1.1v4.8H49.7z"/>
		<path class="st4" d="M61.6,24.2c4.1,0,7,3,7,7.1c0,3.8-2.3,7.3-7,7.3c-5.1,0-7-4-7-7C54.5,27.3,57.1,24.2,61.6,24.2L61.6,24.2z
			 M61.4,25.5c-2.6,0-4.7,2.1-4.7,5.8c0,3.8,2.5,5.9,5,5.9c2.8,0,4.7-2,4.7-5.9C66.4,28.2,64.5,25.5,61.4,25.5L61.4,25.5z"/>
		<path class="st4" d="M82.5,24.7c0.3-0.2,1.3-0.3,1.6-0.3c0.2,0,0.3,0.1,0.4,0.6l1.4,8.2c0.4,2.3,0.7,3.9,0.9,5
			c-0.4,0.1-1.2,0.2-1.6,0.2c-0.3,0-0.4-0.1-0.5-0.5c-0.2-1.2-0.4-2.2-0.6-4.3l-1-6.5c-0.8,2.2-2.4,6.4-3.9,10.4
			c-0.1,0.3-0.2,0.5-0.6,0.6c-0.3,0.1-0.7,0.1-1,0.1c-0.7-2.1-2.7-7.7-3.9-11.1c-0.5,3.1-1.4,8.6-1.7,10.8c-0.1,0.2-0.2,0.4-0.4,0.4
			c-0.4,0-1.1,0-1.4-0.2c0.4-2.2,1.5-8,2.4-13l-0.1-0.5c0.4-0.1,1.1-0.3,1.8-0.3c0.3,0.3,0.5,0.9,1.1,2.3l3.1,8.2
			c1.5-3.5,3.1-7.7,4.1-9.9L82.5,24.7z"/>
		<path class="st4" d="M89.5,27.6c0-1.1,0-1.9-0.1-2.8c0.5-0.1,1.2-0.3,1.8-0.3c1.4,0,3.9,0,5.6,0c-0.1,0.6-0.3,1-0.6,1.3
			C96,26,95.5,26,94.5,26h-3v4.5h5.2c-0.2,1.3-0.7,1.5-1.4,1.5h-3.8v4.9c0.5,0.1,1.6,0.2,2.6,0.2c1,0,2.5,0,3.3-0.1l0,0
			c-0.2,0.7-0.5,1.2-1,1.4c-0.3,0-1.1,0.1-2.7,0.1c-1.9,0-3.4-0.1-4-0.2l-0.3-0.4V27.6z"/>
	</g>
</g>
</svg>
