<?xml version="1.0" encoding="utf-8"?>
<!-- Generator: Adobe Illustrator 21.1.0, SVG Export Plug-In . SVG Version: 6.00 Build 0)  -->
<svg version="1.1" id="Layer_1" xmlns="http://www.w3.org/2000/svg" xmlns:xlink="http://www.w3.org/1999/xlink" x="0px" y="0px"
	 viewBox="0 0 296.9 146" style="enable-background:new 0 0 296.9 146;" xml:space="preserve">
<style type="text/css">
	.st0{fill-rule:evenodd;clip-rule:evenodd;fill:#231F20;}
	.st1{fill-rule:evenodd;clip-rule:evenodd;fill:#72BE44;}
	.st2{fill-rule:evenodd;clip-rule:evenodd;fill:#00994E;}
	.st3{fill-rule:evenodd;clip-rule:evenodd;fill:#006543;}
</style>
<g>
	<g>
		<path class="st0" d="M289,115.2v5h-10.3c-2.6,0-5.1,3.5-5.7,6.5c-0.5,2.6-0.5,5.2,0,8c0.5,2.9,3,6.4,5.7,6.4H289h3.8h2.5v-25.8
			H289z M282.2,136.6c-1.3,0-2.5-1.3-2.8-2.8c-0.4-2-0.5-4.1,0-6.1c0.3-1.5,1.5-2.9,2.8-2.9h6.8v11.9H282.2z"/>
		<polygon class="st0" points="214.3,115.2 209.3,130.4 203.9,115.3 204,115.2 203.9,115.2 201,115.2 198.6,115.2 193.5,130.5 
			188.2,115.2 180.9,115.2 190,141 190.1,141 194.8,141 195.5,141 200.4,126 205.7,141 205.8,141 210.6,141 211.2,141 219.7,115.2 
					"/>
		<path class="st0" d="M237.9,120.3v-0.1H237h-12.8h-0.9v0.1c-2.3,0.7-4.3,3.7-4.9,6.3c-0.5,2.6-0.5,5.2,0,8c0.6,2.9,3,6.4,5.8,6.4
			H237c2.7,0,5.2-3.4,5.8-6.4c0.5-2.8,0.5-5.4,0-8C242.2,124,240.2,121,237.9,120.3z M227.7,136.6c-1.3,0-2.5-1.3-2.8-2.8
			c-0.4-2-0.4-4.1,0-6.1c0.3-1.5,1.5-2.9,2.8-2.9h5.9c1.3,0,2.5,1.4,2.8,2.9c0.4,2,0.4,4.1,0,6.1c-0.3,1.5-1.5,2.8-2.8,2.8H227.7z"
			/>
		<path class="st0" d="M265.1,120.3v-0.1h-0.9h-12.8h-0.9v0.1c-2.3,0.7-4.3,3.7-4.9,6.3c-0.5,2.6-0.5,5.2,0,8c0.6,2.9,3,6.4,5.8,6.4
			h12.8c2.7,0,5.2-3.4,5.7-6.4c0.6-2.8,0.6-5.4,0-8C269.5,124,267.5,121,265.1,120.3z M254.9,136.6c-1.3,0-2.5-1.3-2.8-2.8
			c-0.4-2-0.4-4.1,0-6.1c0.3-1.5,1.5-2.9,2.8-2.9h5.8c1.4,0,2.5,1.4,2.9,2.9c0.4,2,0.3,4.1,0,6.1c-0.3,1.5-1.5,2.8-2.9,2.8H254.9z"
			/>
		<polygon class="st0" points="23.9,132.6 9,115.2 1.8,115.2 1.6,115.2 1.6,141 9,141 9,123.6 23.9,141 31,141 31.2,141 31.2,115.2 
			23.9,115.2 		"/>
		<polygon class="st0" points="78.6,131.8 74.5,120.2 71.7,120.2 69.6,120.2 65.8,131.9 61.7,120.2 55.4,120.2 62.6,141 62.9,141 
			67.2,141 67.6,141 71.4,129.6 75.4,141 75.5,141 79.9,141 80.3,141 87.2,120.2 82.4,120.2 		"/>
		<path class="st0" d="M136.7,126.6c-0.5,2.6-0.5,5.2,0,8c0.5,2.9,3,6.4,5.7,6.4h14.2l0.9-4.5h-11.5c-1.3,0-2.5-1.3-2.8-2.8
			c-0.4-2-0.5-4.1,0-6.1c0.3-1.5,1.5-2.9,2.8-2.9h11.5v-4.6h-15.1C139.7,120.2,137.3,123.7,136.7,126.6z"/>
		<polygon class="st0" points="113.9,120.3 113.9,115.2 104.3,115.2 96.9,115.2 87.3,115.2 87.3,120.3 96.9,120.3 96.9,141 
			104.3,141 104.3,120.3 		"/>
		<path class="st0" d="M49.1,132.6c3.8,0,5.9-2.3,5.9-6c0-3.6-2.1-6.5-5.9-6.5h-4.9h-5c-2.7,0-5.2,3.5-5.7,6.5c-0.6,2.6-0.6,5.2,0,8
			c0.5,2.9,2.9,6.4,5.7,6.4h5h9.4l0.9-4.5H44.2h-1.4c-1.4,0-2.6-1.3-2.9-2.8c0-0.4-0.1-0.7-0.1-1.1h4.5H49.1z M39.9,127.7
			c0.4-1.5,1.5-2.9,2.9-2.9h1.4h3.1c0.6,0,1.3,0.8,1.3,1.7c0,0.8-0.6,1.6-1.3,1.6h-3.1h-4.4C39.9,128,39.9,127.8,39.9,127.7z"/>
		<path class="st0" d="M128.6,132.6c4,0,5.9-2.3,5.9-6c0-3.6-2.1-6.5-5.9-6.5h-4.8h-5.1c-2.6,0-5.1,3.5-5.7,6.5
			c-0.5,2.6-0.5,5.2,0,8c0.5,2.9,3,6.4,5.7,6.4h5.1h9.3l0.9-4.5h-10.2h-1.5c-1.3,0-2.5-1.3-2.8-2.8c-0.1-0.4-0.2-0.7-0.2-1.1h4.6
			H128.6z M119.5,127.7c0.3-1.5,1.5-2.9,2.8-2.9h1.5h3c0.6,0,1.3,0.8,1.3,1.7c0.1,0.8-0.5,1.6-1.3,1.6h-3h-4.5
			C119.4,128,119.4,127.8,119.5,127.7z"/>
		<path class="st0" d="M174.7,120.2H166v-5h-6.4V141h6.4v-16.3h6.4c1.5,0,2.3,1,2.3,2.8V141h6.4v-14.7
			C181.1,123,178.9,120.2,174.7,120.2z"/>
	</g>
	<polygon class="st0" points="74.6,41.6 74.6,41.7 74.6,41.6 109.4,12.5 148.4,45.6 187.5,12.5 222.3,41.6 222.3,41.7 222.3,41.6 
		261.4,74.8 226.6,103.9 187.7,71 183.2,74.8 148.4,103.9 113.6,74.8 109.2,71 70.3,103.9 35.5,74.8 	"/>
	<g>
		<path class="st0" d="M242.2,22.6c-0.1-0.2-0.4-0.3-0.7-0.5c0.9-0.1,1.6-0.4,2-0.9c0.5-0.5,0.7-1,0.7-1.7c0-0.6-0.1-1-0.4-1.5
			c-0.3-0.4-0.6-0.7-1.1-0.9c-0.4-0.2-1.1-0.3-1.9-0.3h-0.5h-3.8v9.8h1.2v-4.4h1.5c0.4,0,0.6,0,0.7,0.1c0.2,0,0.3,0,0.4,0.1
			c0.1,0,0.2,0.1,0.2,0.1c0.2,0.1,0.4,0.4,0.7,0.7c0.2,0.3,0.5,0.7,0.9,1.3l1.3,2h1.6l-1.7-2.6C243,23.4,242.6,22.9,242.2,22.6z
			 M240.4,21.1h-0.2h-2.6v-3.2h2.6h0.5c0.7,0,1.3,0.2,1.6,0.5c0.3,0.2,0.5,0.6,0.5,1.1c0,0.3-0.1,0.6-0.3,0.8
			c-0.1,0.3-0.4,0.5-0.7,0.6C241.4,21.1,241,21.1,240.4,21.1z"/>
		<path class="st0" d="M240.1,12.5c-5.1,0-9.2,4.2-9.2,9.2c0,5.1,4.2,9.1,9.2,9.1c5,0,9.1-4.1,9.1-9.1
			C249.2,16.6,245.1,12.5,240.1,12.5z M240.1,29.8c-4.6,0-8.2-3.6-8.2-8.1c0-4.6,3.6-8.2,8.2-8.2c4.5,0,8.1,3.6,8.1,8.2
			C248.2,26.1,244.6,29.8,240.1,29.8z"/>
	</g>
	<polygon class="st1" points="226.6,96.3 233.1,55.7 191.7,67.2 	"/>
	<polygon class="st2" points="226.6,96.3 261.4,67.2 233.1,55.7 	"/>
	<polygon class="st2" points="191.7,67.2 233.1,55.7 226.6,38 	"/>
	<polygon class="st3" points="233.1,55.7 261.4,67.2 226.6,38 	"/>
	<polygon class="st1" points="70.3,96.3 76.8,55.7 35.5,67.2 	"/>
	<polygon class="st2" points="70.3,96.3 105.2,67.2 76.8,55.7 	"/>
	<polygon class="st2" points="35.5,67.2 76.8,55.7 70.3,38 	"/>
	<polygon class="st3" points="76.8,55.7 105.2,67.2 70.3,38 	"/>
	<polygon class="st1" points="109.4,63.3 115.9,22.7 74.6,34.2 	"/>
	<polygon class="st2" points="109.4,63.3 144.3,34.2 115.9,22.7 	"/>
	<polygon class="st2" points="74.6,34.2 115.9,22.7 109.4,5 	"/>
	<polygon class="st3" points="115.9,22.7 144.3,34.2 109.4,5 	"/>
	<polygon class="st1" points="148.4,96.3 155,55.7 113.6,67.2 	"/>
	<polygon class="st2" points="148.4,96.3 183.2,67.2 155,55.7 	"/>
	<polygon class="st2" points="113.6,67.2 155,55.7 148.4,38 	"/>
	<polygon class="st3" points="155,55.7 183.2,67.2 148.4,38 	"/>
	<polygon class="st1" points="187.5,63.3 194,22.7 152.7,34.2 	"/>
	<polygon class="st2" points="187.5,63.3 222.3,34.2 194,22.7 	"/>
	<polygon class="st2" points="152.7,34.2 194,22.7 187.5,5 	"/>
	<polygon class="st3" points="194,22.7 222.3,34.2 187.5,5 	"/>
</g>
</svg>
