<?xml version="1.0" encoding="utf-8"?>
<!-- Generator: Adobe Illustrator 21.0.0, SVG Export Plug-In . SVG Version: 6.00 Build 0)  -->
<svg version="1.1" id="Layer_1" xmlns="http://www.w3.org/2000/svg" xmlns:xlink="http://www.w3.org/1999/xlink" x="0px" y="0px"
	 viewBox="0 0 1899.8 27.5" style="enable-background:new 0 0 1899.8 27.5;" xml:space="preserve">
<style type="text/css">
	.st0{fill:none;stroke:url(#SVGID_1_);stroke-width:3;stroke-linecap:round;stroke-miterlimit:10;}
</style>
<linearGradient id="SVGID_1_" gradientUnits="userSpaceOnUse" x1="-4501.2124" y1="-7950.4502" x2="-4501.2124" y2="-6042.8579" gradientTransform="matrix(0 -1 -1 0 -6045.3501 -4487.4126)">
	<stop  offset="0" style="stop-color:#3E2C3C"/>
	<stop  offset="0.33" style="stop-color:#9D1E30"/>
	<stop  offset="0.66" style="stop-color:#DD8029"/>
	<stop  offset="1" style="stop-color:#F2B81B"/>
</linearGradient>
<path class="st0" d="M1903.6,14.2V9.5c0-2.2-1.8-4.1-4.1-4.1l0,0c-2.2,0-4.1,1.8-4.1,4.1v4.3v4.3c0,2.2-1.8,4.1-4.1,4.1l0,0
	c-2.2,0-4.1-1.8-4.1-4.1V9.5c0-2.2-1.8-4.1-4.1-4.1l0,0c-2.2,0-4.1,1.8-4.1,4.1v4.3v4.3c0,2.2-1.8,4.1-4.1,4.1l0,0
	c-2.2,0-4.1-1.8-4.1-4.1V9.5c0-2.2-1.8-4.1-4.1-4.1l0,0c-2.2,0-4.1,1.8-4.1,4.1v4.3v4.3c0,2.2-1.8,4.1-4.1,4.1l0,0
	c-2.2,0-4.1-1.8-4.1-4.1V9.5c0-2.2-1.8-4.1-4.1-4.1l0,0c-2.2,0-4.1,1.8-4.1,4.1v4.3v4.3c0,2.2-1.8,4.1-4.1,4.1l0,0
	c-2.2,0-4.1-1.8-4.1-4.1V9.5c0-2.2-1.8-4.1-4.1-4.1l0,0c-2.2,0-4.1,1.8-4.1,4.1v4.3v4.3c0,2.2-1.8,4.1-4.1,4.1l0,0
	c-2.2,0-4.1-1.8-4.1-4.1V9.5c0-2.2-1.8-4.1-4.1-4.1l0,0c-2.2,0-4.1,1.8-4.1,4.1v4.3v4.3c0,2.2-1.8,4.1-4.1,4.1l0,0
	c-2.2,0-4.1-1.8-4.1-4.1V9.5c0-2.2-1.8-4.1-4.1-4.1l0,0c-2.2,0-4.1,1.8-4.1,4.1v4.3v4.3c0,2.2-1.8,4.1-4.1,4.1l0,0
	c-2.2,0-4.1-1.8-4.1-4.1V9.5c0-2.2-1.8-4.1-4.1-4.1l0,0c-2.2,0-4.1,1.8-4.1,4.1v4.3v4.3c0,2.2-1.8,4.1-4.1,4.1l0,0
	c-2.2,0-4.1-1.8-4.1-4.1V9.5c0-2.2-1.8-4.1-4.1-4.1l0,0c-2.2,0-4.1,1.8-4.1,4.1v4.3v4.3c0,2.2-1.8,4.1-4.1,4.1l0,0
	c-2.2,0-4.1-1.8-4.1-4.1V9.5c0-2.2-1.8-4.1-4.1-4.1l0,0c-2.2,0-4.1,1.8-4.1,4.1v4.3v4.3c0,2.2-1.8,4.1-4.1,4.1l0,0
	c-2.2,0-4.1-1.8-4.1-4.1V9.5c0-2.2-1.8-4.1-4.1-4.1l0,0c-2.2,0-4.1,1.8-4.1,4.1v4.3v4.3c0,2.2-1.8,4.1-4.1,4.1l0,0
	c-2.2,0-4.1-1.8-4.1-4.1V9.5c0-2.2-1.8-4.1-4.1-4.1l0,0c-2.2,0-4.1,1.8-4.1,4.1v4.3v4.3c0,2.2-1.8,4.1-4.1,4.1l0,0
	c-2.2,0-4.1-1.8-4.1-4.1V9.5c0-2.2-1.8-4.1-4.1-4.1l0,0c-2.2,0-4.1,1.8-4.1,4.1v4.3l0,0v4.3c0,2.2-1.8,4.1-4.1,4.1l0,0
	c-2.2,0-4.1-1.8-4.1-4.1V9.5c0-2.2-1.8-4.1-4.1-4.1l0,0c-2.2,0-4.1,1.8-4.1,4.1v4.3v4.3c0,2.2-1.8,4.1-4.1,4.1l0,0
	c-2.2,0-4.1-1.8-4.1-4.1V9.5c0-2.2-1.8-4.1-4.1-4.1l0,0c-2.2,0-4.1,1.8-4.1,4.1v4.3v4.3c0,2.2-1.8,4.1-4.1,4.1l0,0
	c-2.2,0-4.1-1.8-4.1-4.1V9.5c0-2.2-1.8-4.1-4.1-4.1l0,0c-2.2,0-4.1,1.8-4.1,4.1v4.3v4.3c0,2.2-1.8,4.1-4.1,4.1l0,0
	c-2.2,0-4.1-1.8-4.1-4.1V9.5c0-2.2-1.8-4.1-4.1-4.1l0,0c-2.2,0-4.1,1.8-4.1,4.1v4.3v4.3c0,2.2-1.8,4.1-4.1,4.1l0,0
	c-2.2,0-4.1-1.8-4.1-4.1V9.5c0-2.2-1.8-4.1-4.1-4.1l0,0c-2.2,0-4.1,1.8-4.1,4.1v4.3v4.3c0,2.2-1.8,4.1-4.1,4.1l0,0
	c-2.2,0-4.1-1.8-4.1-4.1V9.5c0-2.2-1.8-4.1-4.1-4.1l0,0c-2.2,0-4.1,1.8-4.1,4.1v4.3v4.3c0,2.2-1.8,4.1-4.1,4.1l0,0
	c-2.2,0-4.1-1.8-4.1-4.1V9.5c0-2.2-1.8-4.1-4.1-4.1l0,0c-2.2,0-4.1,1.8-4.1,4.1v4.3v4.3c0,2.2-1.8,4.1-4.1,4.1l0,0
	c-2.2,0-4.1-1.8-4.1-4.1V9.5c0-2.2-1.8-4.1-4.1-4.1l0,0c-2.2,0-4.1,1.8-4.1,4.1v4.3v4.3c0,2.2-1.8,4.1-4.1,4.1l0,0
	c-2.2,0-4.1-1.8-4.1-4.1V9.5c0-2.2-1.8-4.1-4.1-4.1l0,0c-2.2,0-4.1,1.8-4.1,4.1v4.3v4.3c0,2.2-1.8,4.1-4.1,4.1l0,0
	c-2.2,0-4.1-1.8-4.1-4.1V9.5c0-2.2-1.8-4.1-4.1-4.1l0,0c-2.2,0-4.1,1.8-4.1,4.1v4.3v4.3c0,2.2-1.8,4.1-4.1,4.1l0,0
	c-2.2,0-4.1-1.8-4.1-4.1V9.5c0-2.2-1.8-4.1-4.1-4.1l0,0c-2.2,0-4.1,1.8-4.1,4.1v4.3v4.3c0,2.2-1.8,4.1-4.1,4.1l0,0
	c-2.2,0-4.1-1.8-4.1-4.1V9.5c0-2.2-1.8-4.1-4.1-4.1l0,0c-2.2,0-4.1,1.8-4.1,4.1v4.3v4.3c0,2.2-1.8,4.1-4.1,4.1l0,0
	c-2.2,0-4.1-1.8-4.1-4.1V9.5c0-2.2-1.8-4.1-4.1-4.1l0,0c-2.2,0-4.1,1.8-4.1,4.1v4.3l0,0v4.3c0,2.2-1.8,4.1-4.1,4.1l0,0
	c-2.2,0-4.1-1.8-4.1-4.1V9.5c0-2.2-1.8-4.1-4.1-4.1l0,0c-2.2,0-4.1,1.8-4.1,4.1v4.3v4.3c0,2.2-1.8,4.1-4.1,4.1l0,0
	c-2.2,0-4.1-1.8-4.1-4.1V9.5c0-2.2-1.8-4.1-4.1-4.1l0,0c-2.2,0-4.1,1.8-4.1,4.1v4.3v4.3c0,2.2-1.8,4.1-4.1,4.1l0,0
	c-2.2,0-4.1-1.8-4.1-4.1V9.5c0-2.2-1.8-4.1-4.1-4.1l0,0c-2.2,0-4.1,1.8-4.1,4.1v4.3v4.3c0,2.2-1.8,4.1-4.1,4.1l0,0
	c-2.2,0-4.1-1.8-4.1-4.1V9.5c0-2.2-1.8-4.1-4.1-4.1l0,0c-2.2,0-4.1,1.8-4.1,4.1v4.3v4.3c0,2.2-1.8,4.1-4.1,4.1l0,0
	c-2.2,0-4.1-1.8-4.1-4.1V9.5c0-2.2-1.8-4.1-4.1-4.1l0,0c-2.2,0-4.1,1.8-4.1,4.1v4.3v4.3c0,2.2-1.8,4.1-4.1,4.1l0,0
	c-2.2,0-4.1-1.8-4.1-4.1V9.5c0-2.2-1.8-4.1-4.1-4.1l0,0c-2.2,0-4.1,1.8-4.1,4.1v4.3v4.3c0,2.2-1.8,4.1-4.1,4.1l0,0
	c-2.2,0-4.1-1.8-4.1-4.1V9.5c0-2.2-1.8-4.1-4.1-4.1l0,0c-2.2,0-4.1,1.8-4.1,4.1v4.3v4.3c0,2.2-1.8,4.1-4.1,4.1l0,0
	c-2.2,0-4.1-1.8-4.1-4.1V9.5c0-2.2-1.8-4.1-4.1-4.1l0,0c-2.2,0-4.1,1.8-4.1,4.1v4.3v4.3c0,2.2-1.8,4.1-4.1,4.1l0,0
	c-2.2,0-4.1-1.8-4.1-4.1V9.5c0-2.2-1.8-4.1-4.1-4.1l0,0c-2.2,0-4.1,1.8-4.1,4.1v4.3v4.3c0,2.2-1.8,4.1-4.1,4.1l0,0
	c-2.2,0-4.1-1.8-4.1-4.1V9.5c0-2.2-1.8-4.1-4.1-4.1l0,0c-2.2,0-4.1,1.8-4.1,4.1v4.3v4.3c0,2.2-1.8,4.1-4.1,4.1l0,0
	c-2.2,0-4.1-1.8-4.1-4.1V9.5c0-2.2-1.8-4.1-4.1-4.1l0,0c-2.2,0-4.1,1.8-4.1,4.1v4.3v4.3c0,2.2-1.8,4.1-4.1,4.1l0,0
	c-2.2,0-4.1-1.8-4.1-4.1V9.5c0-2.2-1.8-4.1-4.1-4.1l0,0c-2.2,0-4.1,1.8-4.1,4.1v4.3v4.3c0,2.2-1.8,4.1-4.1,4.1l0,0
	c-2.2,0-4.1-1.8-4.1-4.1V9.5c0-2.2-1.8-4.1-4.1-4.1l0,0c-2.2,0-4.1,1.8-4.1,4.1v4.3l0,0v4.3c0,2.2-1.8,4.1-4.1,4.1l0,0
	c-2.2,0-4.1-1.8-4.1-4.1V9.5c0-2.2-1.8-4.1-4.1-4.1l0,0c-2.2,0-4.1,1.8-4.1,4.1v4.3v4.3c0,2.2-1.8,4.1-4.1,4.1l0,0
	c-2.2,0-4.1-1.8-4.1-4.1V9.5c0-2.2-1.8-4.1-4.1-4.1l0,0c-2.2,0-4.1,1.8-4.1,4.1v4.3v4.3c0,2.2-1.8,4.1-4.1,4.1l0,0
	c-2.2,0-4.1-1.8-4.1-4.1V9.5c0-2.2-1.8-4.1-4.1-4.1l0,0c-2.2,0-4.1,1.8-4.1,4.1v4.3v4.3c0,2.2-1.8,4.1-4.1,4.1l0,0
	c-2.2,0-4.1-1.8-4.1-4.1V9.5c0-2.2-1.8-4.1-4.1-4.1l0,0c-2.2,0-4.1,1.8-4.1,4.1v4.3v4.3c0,2.2-1.8,4.1-4.1,4.1l0,0
	c-2.2,0-4.1-1.8-4.1-4.1V9.5c0-2.2-1.8-4.1-4.1-4.1l0,0c-2.2,0-4.1,1.8-4.1,4.1v4.3v4.3c0,2.2-1.8,4.1-4.1,4.1l0,0
	c-2.2,0-4.1-1.8-4.1-4.1V9.5c0-2.2-1.8-4.1-4.1-4.1l0,0c-2.2,0-4.1,1.8-4.1,4.1v4.3v4.3c0,2.2-1.8,4.1-4.1,4.1l0,0
	c-2.2,0-4.1-1.8-4.1-4.1V9.5c0-2.2-1.8-4.1-4.1-4.1l0,0c-2.2,0-4.1,1.8-4.1,4.1v4.3v4.3c0,2.2-1.8,4.1-4.1,4.1l0,0
	c-2.2,0-4.1-1.8-4.1-4.1V9.5c0-2.2-1.8-4.1-4.1-4.1l0,0c-2.2,0-4.1,1.8-4.1,4.1v4.3v4.3c0,2.2-1.8,4.1-4.1,4.1l0,0
	c-2.2,0-4.1-1.8-4.1-4.1V9.5c0-2.2-1.8-4.1-4.1-4.1l0,0c-2.2,0-4.1,1.8-4.1,4.1v4.3v4.3c0,2.2-1.8,4.1-4.1,4.1l0,0
	c-2.2,0-4.1-1.8-4.1-4.1V9.5c0-2.2-1.8-4.1-4.1-4.1l0,0c-2.2,0-4.1,1.8-4.1,4.1v4.3v4.3c0,2.2-1.8,4.1-4.1,4.1l0,0
	c-2.2,0-4.1-1.8-4.1-4.1V9.5c0-2.2-1.8-4.1-4.1-4.1l0,0c-2.2,0-4.1,1.8-4.1,4.1v4.3v4.3c0,2.2-1.8,4.1-4.1,4.1l0,0
	c-2.2,0-4.1-1.8-4.1-4.1V9.5c0-2.2-1.8-4.1-4.1-4.1l0,0c-2.2,0-4.1,1.8-4.1,4.1v4.3v4.3c0,2.2-1.8,4.1-4.1,4.1l0,0
	c-2.2,0-4.1-1.8-4.1-4.1V9.5c0-2.2-1.8-4.1-4.1-4.1l0,0c-2.2,0-4.1,1.8-4.1,4.1v4.3l0,0v4.3c0,2.2-1.8,4.1-4.1,4.1l0,0
	c-2.2,0-4.1-1.8-4.1-4.1V9.5c0-2.2-1.8-4.1-4.1-4.1l0,0c-2.2,0-4.1,1.8-4.1,4.1v4.3v4.3c0,2.2-1.8,4.1-4.1,4.1l0,0
	c-2.2,0-4.1-1.8-4.1-4.1V9.5c0-2.2-1.8-4.1-4.1-4.1l0,0c-2.2,0-4.1,1.8-4.1,4.1v4.3v4.3c0,2.2-1.8,4.1-4.1,4.1l0,0
	c-2.2,0-4.1-1.8-4.1-4.1V9.5c0-2.2-1.8-4.1-4.1-4.1l0,0c-2.2,0-4.1,1.8-4.1,4.1v4.3v4.3c0,2.2-1.8,4.1-4.1,4.1l0,0
	c-2.2,0-4.1-1.8-4.1-4.1V9.5c0-2.2-1.8-4.1-4.1-4.1l0,0c-2.2,0-4.1,1.8-4.1,4.1v4.3v4.3c0,2.2-1.8,4.1-4.1,4.1l0,0
	c-2.2,0-4.1-1.8-4.1-4.1V9.5c0-2.2-1.8-4.1-4.1-4.1l0,0c-2.2,0-4.1,1.8-4.1,4.1v4.3v4.3c0,2.2-1.8,4.1-4.1,4.1l0,0
	c-2.2,0-4.1-1.8-4.1-4.1V9.5c0-2.2-1.8-4.1-4.1-4.1l0,0c-2.2,0-4.1,1.8-4.1,4.1v4.3v4.3c0,2.2-1.8,4.1-4.1,4.1l0,0
	c-2.2,0-4.1-1.8-4.1-4.1V9.5c0-2.2-1.8-4.1-4.1-4.1l0,0c-2.2,0-4.1,1.8-4.1,4.1v4.3v4.3c0,2.2-1.8,4.1-4.1,4.1l0,0
	c-2.2,0-4.1-1.8-4.1-4.1V9.5c0-2.2-1.8-4.1-4.1-4.1l0,0c-2.2,0-4.1,1.8-4.1,4.1v4.3v4.3c0,2.2-1.8,4.1-4.1,4.1l0,0
	c-2.2,0-4.1-1.8-4.1-4.1V9.5c0-2.2-1.8-4.1-4.1-4.1l0,0c-2.2,0-4.1,1.8-4.1,4.1v4.3v4.3c0,2.2-1.8,4.1-4.1,4.1l0,0
	c-2.2,0-4.1-1.8-4.1-4.1V9.5c0-2.2-1.8-4.1-4.1-4.1l0,0c-2.2,0-4.1,1.8-4.1,4.1v4.3v4.3c0,2.2-1.8,4.1-4.1,4.1l0,0
	c-2.2,0-4.1-1.8-4.1-4.1V9.5c0-2.2-1.8-4.1-4.1-4.1l0,0c-2.2,0-4.1,1.8-4.1,4.1v4.3v4.3c0,2.2-1.8,4.1-4.1,4.1l0,0
	c-2.2,0-4.1-1.8-4.1-4.1V9.5c0-2.2-1.8-4.1-4.1-4.1l0,0c-2.2,0-4.1,1.8-4.1,4.1v4.3v4.3c0,2.2-1.8,4.1-4.1,4.1l0,0
	c-2.2,0-4.1-1.8-4.1-4.1V9.5c0-2.2-1.8-4.1-4.1-4.1l0,0c-2.2,0-4.1,1.8-4.1,4.1v4.3l0,0v4.3c0,2.2-1.8,4.1-4.1,4.1l0,0
	c-2.2,0-4.1-1.8-4.1-4.1V9.5c0-2.2-1.8-4.1-4.1-4.1l0,0c-2.2,0-4.1,1.8-4.1,4.1v4.3v4.3c0,2.2-1.8,4.1-4.1,4.1l0,0
	c-2.2,0-4.1-1.8-4.1-4.1V9.5c0-2.2-1.8-4.1-4.1-4.1l0,0c-2.2,0-4.1,1.8-4.1,4.1v4.3v4.3c0,2.2-1.8,4.1-4.1,4.1l0,0
	c-2.2,0-4.1-1.8-4.1-4.1V9.5c0-2.2-1.8-4.1-4.1-4.1l0,0c-2.2,0-4.1,1.8-4.1,4.1v4.3v4.3c0,2.2-1.8,4.1-4.1,4.1l0,0
	c-2.2,0-4.1-1.8-4.1-4.1V9.5c0-2.2-1.8-4.1-4.1-4.1l0,0c-2.2,0-4.1,1.8-4.1,4.1v4.3v4.3c0,2.2-1.8,4.1-4.1,4.1l0,0
	c-2.2,0-4.1-1.8-4.1-4.1V9.5c0-2.2-1.8-4.1-4.1-4.1l0,0c-2.2,0-4.1,1.8-4.1,4.1v4.3v4.3c0,2.2-1.8,4.1-4.1,4.1l0,0
	c-2.2,0-4.1-1.8-4.1-4.1V9.5c0-2.2-1.8-4.1-4.1-4.1l0,0c-2.2,0-4.1,1.8-4.1,4.1v4.3v4.3c0,2.2-1.8,4.1-4.1,4.1l0,0
	c-2.2,0-4.1-1.8-4.1-4.1V9.5c0-2.2-1.8-4.1-4.1-4.1l0,0c-2.2,0-4.1,1.8-4.1,4.1v4.3v4.3c0,2.2-1.8,4.1-4.1,4.1l0,0
	c-2.2,0-4.1-1.8-4.1-4.1V9.5c0-2.2-1.8-4.1-4.1-4.1l0,0c-2.2,0-4.1,1.8-4.1,4.1v4.3v4.3c0,2.2-1.8,4.1-4.1,4.1l0,0
	c-2.2,0-4.1-1.8-4.1-4.1V9.5c0-2.2-1.8-4.1-4.1-4.1l0,0c-2.2,0-4.1,1.8-4.1,4.1v4.3v4.3c0,2.2-1.8,4.1-4.1,4.1l0,0
	c-2.2,0-4.1-1.8-4.1-4.1V9.5c0-2.2-1.8-4.1-4.1-4.1l0,0c-2.2,0-4.1,1.8-4.1,4.1v4.3v4.3c0,2.2-1.8,4.1-4.1,4.1l0,0
	c-2.2,0-4.1-1.8-4.1-4.1V9.5c0-2.2-1.8-4.1-4.1-4.1l0,0c-2.2,0-4.1,1.8-4.1,4.1v4.3v4.3c0,2.2-1.8,4.1-4.1,4.1l0,0
	c-2.2,0-4.1-1.8-4.1-4.1V9.5c0-2.2-1.8-4.1-4.1-4.1l0,0c-2.2,0-4.1,1.8-4.1,4.1v4.3v4.3c0,2.2-1.8,4.1-4.1,4.1l0,0
	c-2.2,0-4.1-1.8-4.1-4.1V9.5c0-2.2-1.8-4.1-4.1-4.1l0,0c-2.2,0-4.1,1.8-4.1,4.1v4.3l0,0v4.3c0,2.2-1.8,4.1-4.1,4.1l0,0
	c-2.2,0-4.1-1.8-4.1-4.1V9.5c0-2.2-1.8-4.1-4.1-4.1l0,0c-2.2,0-4.1,1.8-4.1,4.1v4.3v4.3c0,2.2-1.8,4.1-4.1,4.1l0,0
	c-2.2,0-4.1-1.8-4.1-4.1V9.5c0-2.2-1.8-4.1-4.1-4.1l0,0c-2.2,0-4.1,1.8-4.1,4.1v4.3v4.3c0,2.2-1.8,4.1-4.1,4.1l0,0
	c-2.2,0-4.1-1.8-4.1-4.1V9.5c0-2.2-1.8-4.1-4.1-4.1l0,0c-2.2,0-4.1,1.8-4.1,4.1v4.3v4.3c0,2.2-1.8,4.1-4.1,4.1l0,0
	c-2.2,0-4.1-1.8-4.1-4.1V9.5c0-2.2-1.8-4.1-4.1-4.1l0,0c-2.2,0-4.1,1.8-4.1,4.1v4.3v4.3c0,2.2-1.8,4.1-4.1,4.1l0,0
	c-2.2,0-4.1-1.8-4.1-4.1V9.5c0-2.2-1.8-4.1-4.1-4.1l0,0c-2.2,0-4.1,1.8-4.1,4.1v4.3v4.3c0,2.2-1.8,4.1-4.1,4.1l0,0
	c-2.2,0-4.1-1.8-4.1-4.1V9.5c0-2.2-1.8-4.1-4.1-4.1l0,0c-2.2,0-4.1,1.8-4.1,4.1v4.3v4.3c0,2.2-1.8,4.1-4.1,4.1l0,0
	c-2.2,0-4.1-1.8-4.1-4.1V9.5c0-2.2-1.8-4.1-4.1-4.1l0,0c-2.2,0-4.1,1.8-4.1,4.1v4.3v4.3c0,2.2-1.8,4.1-4.1,4.1l0,0
	c-2.2,0-4.1-1.8-4.1-4.1V9.5c0-2.2-1.8-4.1-4.1-4.1l0,0c-2.2,0-4.1,1.8-4.1,4.1v4.3v4.3c0,2.2-1.8,4.1-4.1,4.1l0,0
	c-2.2,0-4.1-1.8-4.1-4.1V9.5c0-2.2-1.8-4.1-4.1-4.1l0,0c-2.2,0-4.1,1.8-4.1,4.1v4.3v4.3c0,2.2-1.8,4.1-4.1,4.1l0,0
	c-2.2,0-4.1-1.8-4.1-4.1V9.5c0-2.2-1.8-4.1-4.1-4.1l0,0c-2.2,0-4.1,1.8-4.1,4.1v4.3v4.3c0,2.2-1.8,4.1-4.1,4.1l0,0
	c-2.2,0-4.1-1.8-4.1-4.1V9.5c0-2.2-1.8-4.1-4.1-4.1l0,0c-2.2,0-4.1,1.8-4.1,4.1v4.3v4.3c0,2.2-1.8,4.1-4.1,4.1l0,0
	c-2.2,0-4.1-1.8-4.1-4.1V9.5c0-2.2-1.8-4.1-4.1-4.1l0,0c-2.2,0-4.1,1.8-4.1,4.1v4.3v4.3c0,2.2-1.8,4.1-4.1,4.1l0,0
	c-2.2,0-4.1-1.8-4.1-4.1V9.5c0-2.2-1.8-4.1-4.1-4.1l0,0c-2.2,0-4.1,1.8-4.1,4.1v4.3l0.2,4.3c0,2.2-1.8,4.1-4.1,4.1l0,0
	c-2.2,0-4.1-1.8-4.1-4.1V9.5c0-2.2-1.8-4.1-4.1-4.1l0,0c-2.2,0-4.1,1.8-4.1,4.1v4.3v4.3c0,2.2-1.8,4.1-4.1,4.1l0,0
	c-2.2,0-4.1-1.8-4.1-4.1V9.5c0-2.2-1.8-4.1-4.1-4.1l0,0c-2.2,0-4.1,1.8-4.1,4.1v4.3v4.3c0,2.2-1.8,4.1-4.1,4.1l0,0
	c-2.2,0-4.1-1.8-4.1-4.1V9.5c0-2.2-1.8-4.1-4.1-4.1l0,0c-2.2,0-4.1,1.8-4.1,4.1v4.3v4.3c0,2.2-1.8,4.1-4.1,4.1l0,0
	c-2.2,0-4.1-1.8-4.1-4.1V9.5c0-2.2-1.8-4.1-4.1-4.1l0,0c-2.2,0-4.1,1.8-4.1,4.1v4.3v4.3c0,2.2-1.8,4.1-4.1,4.1l0,0
	c-2.2,0-4.1-1.8-4.1-4.1V9.5c0-2.2-1.8-4.1-4.1-4.1l0,0c-2.2,0-4.1,1.8-4.1,4.1v4.3v4.3c0,2.2-1.8,4.1-4.1,4.1l0,0
	c-2.2,0-4.1-1.8-4.1-4.1V9.5c0-2.2-1.8-4.1-4.1-4.1l0,0c-2.2,0-4.1,1.8-4.1,4.1v4.3v4.3c0,2.2-1.8,4.1-4.1,4.1l0,0
	c-2.2,0-4.1-1.8-4.1-4.1V9.5c0-2.2-1.8-4.1-4.1-4.1l0,0c-2.2,0-4.1,1.8-4.1,4.1v4.3v4.3c0,2.2-1.8,4.1-4.1,4.1l0,0
	c-2.2,0-4.1-1.8-4.1-4.1V9.5c0-2.2-1.8-4.1-4.1-4.1l0,0c-2.2,0-4.1,1.8-4.1,4.1v4.3v4.3c0,2.2-1.8,4.1-4.1,4.1l0,0
	c-2.2,0-4.1-1.8-4.1-4.1V9.5c0-2.2-1.8-4.1-4.1-4.1l0,0c-2.2,0-4.1,1.8-4.1,4.1v4.3v4.3c0,2.2-1.8,4.1-4.1,4.1l0,0
	c-2.2,0-4.1-1.8-4.1-4.1V9.5c0-2.2-1.8-4.1-4.1-4.1l0,0c-2.2,0-4.1,1.8-4.1,4.1v4.3v4.3c0,2.2-1.8,4.1-4.1,4.1l0,0
	c-2.2,0-4.1-1.8-4.1-4.1V9.5c0-2.2-1.8-4.1-4.1-4.1l0,0c-2.2,0-4.1,1.8-4.1,4.1v4.3v4.3c0,2.2-1.8,4.1-4.1,4.1l0,0
	c-2.2,0-4.1-1.8-4.1-4.1V9.5c0-2.2-1.8-4.1-4.1-4.1l0,0c-2.2,0-4.1,1.8-4.1,4.1v4.3v4.3c0,2.2-1.8,4.1-4.1,4.1l0,0
	c-2.2,0-4.1-1.8-4.1-4.1V9.5c0-2.2-1.8-4.1-4.1-4.1l0,0c-2.2,0-4.1,1.8-4.1,4.1v4.3l0.2,4.3c0,2.2-1.8,4.1-4.1,4.1l0,0
	c-2.2,0-4.1-1.8-4.1-4.1V9.5c0-2.2-1.8-4.1-4.1-4.1l0,0c-2.2,0-4.1,1.8-4.1,4.1v4.3v4.3c0,2.2-1.8,4.1-4.1,4.1l0,0
	c-2.2,0-4.1-1.8-4.1-4.1V9.5c0-2.2-1.8-4.1-4.1-4.1l0,0c-2.2,0-4.1,1.8-4.1,4.1v4.3v4.3c0,2.2-1.8,4.1-4.1,4.1l0,0
	c-2.2,0-4.1-1.8-4.1-4.1V9.5c0-2.2-1.8-4.1-4.1-4.1l0,0c-2.2,0-4.1,1.8-4.1,4.1v4.3v4.3c0,2.2-1.8,4.1-4.1,4.1l0,0
	c-2.2,0-4.1-1.8-4.1-4.1V9.5c0-2.2-1.8-4.1-4.1-4.1l0,0c-2.2,0-4.1,1.8-4.1,4.1v4.3v4.3c0,2.2-1.8,4.1-4.1,4.1l0,0
	c-2.2,0-4.1-1.8-4.1-4.1V9.5c0-2.2-1.8-4.1-4.1-4.1l0,0c-2.2,0-4.1,1.8-4.1,4.1v4.3v4.3c0,2.2-1.8,4.1-4.1,4.1l0,0
	c-2.2,0-4.1-1.8-4.1-4.1V9.5c0-2.2-1.8-4.1-4.1-4.1l0,0c-2.2,0-4.1,1.8-4.1,4.1v4.3v4.3c0,2.2-1.8,4.1-4.1,4.1l0,0
	c-2.2,0-4.1-1.8-4.1-4.1V9.5c0-2.2-1.8-4.1-4.1-4.1l0,0c-2.2,0-4.1,1.8-4.1,4.1v4.3v4.3c0,2.2-1.8,4.1-4.1,4.1l0,0
	c-2.2,0-4.1-1.8-4.1-4.1V9.5c0-2.2-1.8-4.1-4.1-4.1l0,0c-2.2,0-4.1,1.8-4.1,4.1v4.3v4.3c0,2.2-1.8,4.1-4.1,4.1l0,0
	c-2.2,0-4.1-1.8-4.1-4.1V9.5c0-2.2-1.8-4.1-4.1-4.1l0,0c-2.2,0-4.1,1.8-4.1,4.1v4.3v4.3c0,2.2-1.8,4.1-4.1,4.1l0,0
	c-2.2,0-4.1-1.8-4.1-4.1V9.5c0-2.2-1.8-4.1-4.1-4.1l0,0c-2.2,0-4.1,1.8-4.1,4.1v4.3v4.3c0,2.2-1.8,4.1-4.1,4.1l0,0
	c-2.2,0-4.1-1.8-4.1-4.1V9.5c0-2.2-1.8-4.1-4.1-4.1l0,0c-2.2,0-4.1,1.8-4.1,4.1v4.3v4.3c0,2.2-1.8,4.1-4.1,4.1l0,0
	c-2.2,0-4.1-1.8-4.1-4.1V9.5c0-2.2-1.8-4.1-4.1-4.1l0,0c-2.2,0-4.1,1.8-4.1,4.1v4.3v4.3c0,2.2-1.8,4.1-4.1,4.1l0,0
	c-2.2,0-4.1-1.8-4.1-4.1V9.5c0-2.2-1.8-4.1-4.1-4.1l0,0C1.8,5.4,0,7.3,0,9.5v4.3"/>
</svg>
