<?xml version="1.0" encoding="utf-8"?>
<!-- Generator: Adobe Illustrator 21.1.0, SVG Export Plug-In . SVG Version: 6.00 Build 0)  -->
<svg version="1.1" id="Layer_1" xmlns="http://www.w3.org/2000/svg" xmlns:xlink="http://www.w3.org/1999/xlink" x="0px" y="0px"
	 viewBox="0 0 39.9 50" style="enable-background:new 0 0 39.9 50;" xml:space="preserve">
<style type="text/css">
	.st0{fill:url(#SVGID_1_);}
	.st1{fill:url(#SVGID_2_);}
	.st2{fill:url(#SVGID_3_);}
	.st3{fill:url(#SVGID_4_);}
	.st4{fill:url(#SVGID_5_);}
	.st5{fill:url(#SVGID_6_);}
	.st6{fill:url(#SVGID_7_);}
	.st7{fill:url(#SVGID_8_);}
	.st8{fill:url(#SVGID_9_);}
	.st9{fill:url(#SVGID_10_);}
	.st10{fill:url(#SVGID_11_);}
	.st11{fill:url(#SVGID_12_);}
	.st12{fill:url(#SVGID_13_);}
	.st13{fill:url(#SVGID_14_);}
	.st14{fill:url(#SVGID_15_);}
	.st15{fill:url(#SVGID_16_);}
	.st16{fill:url(#SVGID_17_);}
	.st17{fill:url(#SVGID_18_);}
	.st18{fill:url(#SVGID_19_);}
	.st19{fill:url(#SVGID_20_);}
	.st20{fill:url(#SVGID_21_);}
	.st21{fill:url(#SVGID_22_);}
	.st22{fill:url(#SVGID_23_);}
	.st23{fill:url(#SVGID_24_);}
	.st24{fill:url(#SVGID_25_);}
	.st25{fill:url(#SVGID_26_);}
	.st26{fill:url(#SVGID_27_);}
	.st27{fill:url(#SVGID_28_);}
	.st28{fill:url(#SVGID_29_);}
</style>
<g>
	<linearGradient id="SVGID_1_" gradientUnits="userSpaceOnUse" x1="19.7901" y1="49.2048" x2="19.7901" y2="0.396">
		<stop  offset="0" style="stop-color:#3E2C3C"/>
		<stop  offset="0.33" style="stop-color:#9C1E32"/>
		<stop  offset="0.66" style="stop-color:#DC8029"/>
		<stop  offset="1" style="stop-color:#F0B71C"/>
	</linearGradient>
	<path class="st0" d="M39.5,1.5C39.5,1.5,39.5,1.5,39.5,1.5C39.5,1.5,39.5,1.5,39.5,1.5C39.4,1.5,39.4,1.5,39.5,1.5
		C39.4,1.5,39.4,1.5,39.5,1.5C39.4,1.5,39.4,1.5,39.5,1.5C39.4,1.5,39.4,1.5,39.5,1.5c-0.1-0.1-0.2-0.1-0.3-0.1L19.8,0
		c0,0,0,0-0.1,0L0.5,1.4C0.2,1.4,0,1.6,0,1.9v1.7C0,3.8,0.2,4,0.4,4.1l19.4,2.8c0,0,0,0,0.1,0c0,0,0,0,0,0c0,0,0,0,0,0c0,0,0,0,0,0
		c0,0,0,0,0,0c0,0,0,0,0,0c0,0,0,0,0,0c0,0,0,0,0,0c0,0,0,0,0.1,0l19.2-2.8c0.2,0,0.4-0.2,0.4-0.5V1.9C39.6,1.7,39.5,1.6,39.5,1.5z
		 M19.4,5.9L0.9,3.2V2.4l18.5,2V5.9z M19.9,3.5L5.7,2l14.1-1l14.1,1L19.9,3.5z M38.6,3.2L20.3,5.9V4.4l18.3-2V3.2z"/>
	<linearGradient id="SVGID_2_" gradientUnits="userSpaceOnUse" x1="25.5995" y1="49.2048" x2="25.5995" y2="0.396">
		<stop  offset="0" style="stop-color:#3E2C3C"/>
		<stop  offset="0.33" style="stop-color:#9C1E32"/>
		<stop  offset="0.66" style="stop-color:#DC8029"/>
		<stop  offset="1" style="stop-color:#F0B71C"/>
	</linearGradient>
	<path class="st1" d="M19.2,27.3c0.1,0.2,0.2,0.3,0.5,0.3c0,0,0.1,0,0.1,0l11.9-3.5c0.3-0.1,0.4-0.3,0.3-0.6
		c-0.1-0.3-0.3-0.4-0.6-0.3l-11.9,3.5C19.3,26.8,19.1,27,19.2,27.3z"/>
	<linearGradient id="SVGID_3_" gradientUnits="userSpaceOnUse" x1="18.2089" y1="49.2048" x2="18.2089" y2="0.396">
		<stop  offset="0" style="stop-color:#3E2C3C"/>
		<stop  offset="0.33" style="stop-color:#9C1E32"/>
		<stop  offset="0.66" style="stop-color:#DC8029"/>
		<stop  offset="1" style="stop-color:#F0B71C"/>
	</linearGradient>
	<path class="st2" d="M24.2,21.9c-0.1-0.3-0.3-0.4-0.6-0.3l-11,2.9c-0.3,0.1-0.4,0.3-0.3,0.6c0.1,0.2,0.2,0.4,0.5,0.4
		c0,0,0.1,0,0.1,0l11-2.9C24.1,22.4,24.2,22.2,24.2,21.9z"/>
	<linearGradient id="SVGID_4_" gradientUnits="userSpaceOnUse" x1="21.9699" y1="49.2048" x2="21.9699" y2="0.396">
		<stop  offset="0" style="stop-color:#3E2C3C"/>
		<stop  offset="0.33" style="stop-color:#9C1E32"/>
		<stop  offset="0.66" style="stop-color:#DC8029"/>
		<stop  offset="1" style="stop-color:#F0B71C"/>
	</linearGradient>
	<path class="st3" d="M16.4,26c0.1,0.2,0.2,0.3,0.5,0.3c0,0,0.1,0,0.1,0l10.3-2.9c0.3-0.1,0.4-0.3,0.3-0.6c-0.1-0.3-0.3-0.4-0.6-0.3
		l-10.3,2.9C16.4,25.5,16.3,25.8,16.4,26z"/>
	<linearGradient id="SVGID_5_" gradientUnits="userSpaceOnUse" x1="19.7173" y1="49.2048" x2="19.7173" y2="0.396">
		<stop  offset="0" style="stop-color:#3E2C3C"/>
		<stop  offset="0.33" style="stop-color:#9C1E32"/>
		<stop  offset="0.66" style="stop-color:#DC8029"/>
		<stop  offset="1" style="stop-color:#F0B71C"/>
	</linearGradient>
	<path class="st4" d="M39.4,9.7c0-0.2-0.2-0.4-0.4-0.5L19.9,6.8c0,0-0.1,0-0.1,0L0.6,9.3c-0.2,0-0.4,0.2-0.4,0.5
		c0,0.2,0.2,0.4,0.4,0.5l17.3,2.9L0.5,16.3c-0.2,0-0.4,0.2-0.4,0.5c0,0.2,0.1,0.4,0.4,0.5l13.4,3L0.5,23.3c-0.2,0-0.4,0.2-0.4,0.4
		c0,0.2,0.1,0.4,0.3,0.5L8,26.5l-7.5,2.1c-0.3,0-0.5,0.2-0.5,0.5v2.5c0,0.2,0.1,0.4,0.3,0.4l5.8,2.4l-5.6,2
		c-0.2,0.1-0.3,0.2-0.3,0.4c0,0,0,0,0,0.1c0,0,0,0,0,0.1v3.5c0,0.2,0.1,0.3,0.3,0.4L19.6,50c0.1,0,0.1,0,0.2,0c0.1,0,0.1,0,0.2,0
		l19-9.2c0.2-0.1,0.3-0.2,0.3-0.4v-3.6c0,0,0,0,0,0c0-0.1,0-0.2-0.1-0.3c0,0,0,0-0.1-0.1c0,0-0.1-0.1-0.1-0.1l-5.7-2L39,32
		c0.2-0.1,0.3-0.2,0.3-0.4v-2.5c0,0,0,0,0,0c0-0.1,0-0.2-0.1-0.3l0,0c0,0,0,0,0,0c0,0,0,0-0.1-0.1c0,0-0.1-0.1-0.2-0.1l-7.4-2.1
		l7.5-2.3c0.2-0.1,0.3-0.3,0.3-0.5c0-0.2-0.2-0.4-0.4-0.4l-12.8-3l12.8-3c0.2-0.1,0.4-0.2,0.4-0.5c0-0.2-0.2-0.4-0.4-0.5l-17.4-3.2
		L39,10.2C39.3,10.1,39.4,9.9,39.4,9.7z M0.9,31.2v-1.5l18.2,6.9v2.1L7.6,34c0,0-0.1,0-0.1-0.1L0.9,31.2z M19.2,45.7v3L1.1,40.1
		v-2.5l8.2,3.7C9.1,41.5,9.2,42,9.6,42c0.3,0,0.4-0.2,0.5-0.5L19.2,45.7C19.2,45.7,19.2,45.7,19.2,45.7z M38.3,38.7
		c-0.6,0-0.6,0.9,0,0.9v0.4L28.1,45c0-0.2-0.2-0.4-0.4-0.4c-0.4,0-0.6,0.5-0.4,0.7l-7.2,3.5c0,0,0,0,0,0v-3.1l12-5.4
		c-0.3,0.2-0.2,0.8,0.3,0.8c0.6,0,0.6-0.9,0-0.9c0,0-0.1,0-0.1,0l6.1-2.7V38.7z M37.5,36.8l-17.8,8l-17.9-8l5.5-2l0.7,0.3
		c-0.4,0.2-0.3,0.9,0.2,0.9c0.4,0,0.5-0.3,0.4-0.6l2.5,1c0,0,0,0,0,0c-0.6,0-0.6,0.9,0,0.9c0.5,0,0.6-0.6,0.3-0.8l7.9,3.3
		c0.1,0,0.1,0,0.2,0c0,0,0,0,0,0h0c0,0,0,0,0,0c0,0,0,0,0,0c0.1,0,0.1,0,0.2,0l3.9-1.6c0,0.2,0.2,0.3,0.4,0.3c0.4,0,0.5-0.4,0.4-0.7
		l5.6-2.3c0,0.2,0.1,0.5,0.5,0.5c0.5,0,0.6-0.5,0.3-0.8l0.9-0.4L37.5,36.8z M38.3,31.2l-6.6,2.7c0,0-0.1,0-0.1,0.1l-11.5,4.7v-2
		l18.2-6.9V31.2z M37.3,29.1l-17.6,6.7c0,0-0.1,0-0.1,0c0,0,0,0,0,0L2.1,29.1L9.7,27l10,3.1c0.1,0,0.2,0,0.3,0l10-3.1L37.3,29.1z
		 M37.2,23.8l-17.4,5.3L2.5,23.8L16,20.7l2.2,0.5l-9.4,2.4c-0.3,0.1-0.4,0.3-0.3,0.6c0.1,0.3,0.3,0.4,0.6,0.3l15.2-3.8L37.2,23.8z
		 M36.7,16.8l-16.4,3.9L3,16.8l16.8-3.1L36.7,16.8z M19.8,12.4l-16-2.7l16-2.1l16,2.1L19.8,12.4z"/>
	<linearGradient id="SVGID_6_" gradientUnits="userSpaceOnUse" x1="17.8058" y1="49.2048" x2="17.8058" y2="0.396">
		<stop  offset="0" style="stop-color:#3E2C3C"/>
		<stop  offset="0.33" style="stop-color:#9C1E32"/>
		<stop  offset="0.66" style="stop-color:#DC8029"/>
		<stop  offset="1" style="stop-color:#F0B71C"/>
	</linearGradient>
	<path class="st5" d="M17.8,41.7c-0.6,0-0.6,0.9,0,0.9C18.4,42.7,18.4,41.7,17.8,41.7z"/>
	<linearGradient id="SVGID_7_" gradientUnits="userSpaceOnUse" x1="12.9878" y1="49.2048" x2="12.9878" y2="0.396">
		<stop  offset="0" style="stop-color:#3E2C3C"/>
		<stop  offset="0.33" style="stop-color:#9C1E32"/>
		<stop  offset="0.66" style="stop-color:#DC8029"/>
		<stop  offset="1" style="stop-color:#F0B71C"/>
	</linearGradient>
	<path class="st6" d="M13,39.5c-0.6,0-0.6,0.9,0,0.9C13.6,40.5,13.6,39.5,13,39.5z"/>
	<linearGradient id="SVGID_8_" gradientUnits="userSpaceOnUse" x1="16.4442" y1="49.2048" x2="16.4442" y2="0.396">
		<stop  offset="0" style="stop-color:#3E2C3C"/>
		<stop  offset="0.33" style="stop-color:#9C1E32"/>
		<stop  offset="0.66" style="stop-color:#DC8029"/>
		<stop  offset="1" style="stop-color:#F0B71C"/>
	</linearGradient>
	<path class="st7" d="M16.4,39.2c-0.6,0-0.6,0.9,0,0.9C17.1,40.1,17.1,39.2,16.4,39.2z"/>
	<linearGradient id="SVGID_9_" gradientUnits="userSpaceOnUse" x1="8.5887" y1="49.2048" x2="8.5887" y2="0.396">
		<stop  offset="0" style="stop-color:#3E2C3C"/>
		<stop  offset="0.33" style="stop-color:#9C1E32"/>
		<stop  offset="0.66" style="stop-color:#DC8029"/>
		<stop  offset="1" style="stop-color:#F0B71C"/>
	</linearGradient>
	<path class="st8" d="M8.6,38.2c-0.6,0-0.6,0.9,0,0.9C9.2,39.1,9.2,38.2,8.6,38.2z"/>
	<linearGradient id="SVGID_10_" gradientUnits="userSpaceOnUse" x1="2.6185" y1="49.2048" x2="2.6185" y2="0.396">
		<stop  offset="0" style="stop-color:#3E2C3C"/>
		<stop  offset="0.33" style="stop-color:#9C1E32"/>
		<stop  offset="0.66" style="stop-color:#DC8029"/>
		<stop  offset="1" style="stop-color:#F0B71C"/>
	</linearGradient>
	<path class="st9" d="M2.6,39.4c-0.6,0-0.6,0.9,0,0.9C3.2,40.4,3.2,39.4,2.6,39.4z"/>
	<linearGradient id="SVGID_11_" gradientUnits="userSpaceOnUse" x1="22.4143" y1="49.2048" x2="22.4143" y2="0.396">
		<stop  offset="0" style="stop-color:#3E2C3C"/>
		<stop  offset="0.33" style="stop-color:#9C1E32"/>
		<stop  offset="0.66" style="stop-color:#DC8029"/>
		<stop  offset="1" style="stop-color:#F0B71C"/>
	</linearGradient>
	<path class="st10" d="M22.4,40.4c0.6,0,0.6-0.9,0-0.9C21.8,39.4,21.8,40.4,22.4,40.4z"/>
	<linearGradient id="SVGID_12_" gradientUnits="userSpaceOnUse" x1="20.0053" y1="49.2048" x2="20.0053" y2="0.396">
		<stop  offset="0" style="stop-color:#3E2C3C"/>
		<stop  offset="0.33" style="stop-color:#9C1E32"/>
		<stop  offset="0.66" style="stop-color:#DC8029"/>
		<stop  offset="1" style="stop-color:#F0B71C"/>
	</linearGradient>
	<path class="st11" d="M20,42.3c-0.6,0-0.6,0.9,0,0.9C20.6,43.3,20.6,42.3,20,42.3z"/>
	<linearGradient id="SVGID_13_" gradientUnits="userSpaceOnUse" x1="19.0627" y1="49.2048" x2="19.0627" y2="0.396">
		<stop  offset="0" style="stop-color:#3E2C3C"/>
		<stop  offset="0.33" style="stop-color:#9C1E32"/>
		<stop  offset="0.66" style="stop-color:#DC8029"/>
		<stop  offset="1" style="stop-color:#F0B71C"/>
	</linearGradient>
	<path class="st12" d="M19.1,39.8c-0.6,0-0.6,0.9,0,0.9C19.7,40.8,19.7,39.8,19.1,39.8z"/>
	<linearGradient id="SVGID_14_" gradientUnits="userSpaceOnUse" x1="22.5191" y1="49.2048" x2="22.5191" y2="0.396">
		<stop  offset="0" style="stop-color:#3E2C3C"/>
		<stop  offset="0.33" style="stop-color:#9C1E32"/>
		<stop  offset="0.66" style="stop-color:#DC8029"/>
		<stop  offset="1" style="stop-color:#F0B71C"/>
	</linearGradient>
	<path class="st13" d="M22.5,41.7c-0.6,0-0.6,0.9,0,0.9C23.1,42.7,23.1,41.7,22.5,41.7z"/>
	<linearGradient id="SVGID_15_" gradientUnits="userSpaceOnUse" x1="21.5764" y1="49.2048" x2="21.5764" y2="0.396">
		<stop  offset="0" style="stop-color:#3E2C3C"/>
		<stop  offset="0.33" style="stop-color:#9C1E32"/>
		<stop  offset="0.66" style="stop-color:#DC8029"/>
		<stop  offset="1" style="stop-color:#F0B71C"/>
	</linearGradient>
	<path class="st14" d="M21.6,45.8c-0.6,0-0.6,0.9,0,0.9C22.2,46.7,22.2,45.8,21.6,45.8z"/>
	<linearGradient id="SVGID_16_" gradientUnits="userSpaceOnUse" x1="15.292" y1="49.2048" x2="15.292" y2="0.396">
		<stop  offset="0" style="stop-color:#3E2C3C"/>
		<stop  offset="0.33" style="stop-color:#9C1E32"/>
		<stop  offset="0.66" style="stop-color:#DC8029"/>
		<stop  offset="1" style="stop-color:#F0B71C"/>
	</linearGradient>
	<path class="st15" d="M15.3,41c-0.6,0-0.6,0.9,0,0.9C15.9,41.9,15.9,41,15.3,41z"/>
	<linearGradient id="SVGID_17_" gradientUnits="userSpaceOnUse" x1="5.237" y1="49.2048" x2="5.237" y2="0.396">
		<stop  offset="0" style="stop-color:#3E2C3C"/>
		<stop  offset="0.33" style="stop-color:#9C1E32"/>
		<stop  offset="0.66" style="stop-color:#DC8029"/>
		<stop  offset="1" style="stop-color:#F0B71C"/>
	</linearGradient>
	<path class="st16" d="M5.2,36.6c-0.6,0-0.6,0.9,0,0.9C5.8,37.5,5.8,36.6,5.2,36.6z"/>
	<linearGradient id="SVGID_18_" gradientUnits="userSpaceOnUse" x1="6.4939" y1="49.2048" x2="6.4939" y2="0.396">
		<stop  offset="0" style="stop-color:#3E2C3C"/>
		<stop  offset="0.33" style="stop-color:#9C1E32"/>
		<stop  offset="0.66" style="stop-color:#DC8029"/>
		<stop  offset="1" style="stop-color:#F0B71C"/>
	</linearGradient>
	<path class="st17" d="M6.5,41c-0.6,0-0.6,0.9,0,0.9C7.1,41.9,7.1,41,6.5,41z"/>
	<linearGradient id="SVGID_19_" gradientUnits="userSpaceOnUse" x1="10.7882" y1="49.2048" x2="10.7882" y2="0.396">
		<stop  offset="0" style="stop-color:#3E2C3C"/>
		<stop  offset="0.33" style="stop-color:#9C1E32"/>
		<stop  offset="0.66" style="stop-color:#DC8029"/>
		<stop  offset="1" style="stop-color:#F0B71C"/>
	</linearGradient>
	<path class="st18" d="M10.8,38.8c-0.6,0-0.6,0.9,0,0.9C11.4,39.7,11.4,38.8,10.8,38.8z"/>
	<linearGradient id="SVGID_20_" gradientUnits="userSpaceOnUse" x1="16.1299" y1="49.2048" x2="16.1299" y2="0.396">
		<stop  offset="0" style="stop-color:#3E2C3C"/>
		<stop  offset="0.33" style="stop-color:#9C1E32"/>
		<stop  offset="0.66" style="stop-color:#DC8029"/>
		<stop  offset="1" style="stop-color:#F0B71C"/>
	</linearGradient>
	<path class="st19" d="M16.1,47c0.6,0,0.6-0.9,0-0.9C15.5,46,15.5,47,16.1,47z"/>
	<linearGradient id="SVGID_21_" gradientUnits="userSpaceOnUse" x1="24.5091" y1="49.2048" x2="24.5091" y2="0.396">
		<stop  offset="0" style="stop-color:#3E2C3C"/>
		<stop  offset="0.33" style="stop-color:#9C1E32"/>
		<stop  offset="0.66" style="stop-color:#DC8029"/>
		<stop  offset="1" style="stop-color:#F0B71C"/>
	</linearGradient>
	<path class="st20" d="M24.5,39.6c-0.6,0-0.6,0.9,0,0.9C25.1,40.6,25.1,39.6,24.5,39.6z"/>
	<linearGradient id="SVGID_22_" gradientUnits="userSpaceOnUse" x1="14.1399" y1="49.2048" x2="14.1399" y2="0.396">
		<stop  offset="0" style="stop-color:#3E2C3C"/>
		<stop  offset="0.33" style="stop-color:#9C1E32"/>
		<stop  offset="0.66" style="stop-color:#DC8029"/>
		<stop  offset="1" style="stop-color:#F0B71C"/>
	</linearGradient>
	<path class="st21" d="M14.1,45c0.6,0,0.6-0.9,0-0.9C13.5,44,13.5,45,14.1,45z"/>
	<linearGradient id="SVGID_23_" gradientUnits="userSpaceOnUse" x1="28.2798" y1="49.2048" x2="28.2798" y2="0.396">
		<stop  offset="0" style="stop-color:#3E2C3C"/>
		<stop  offset="0.33" style="stop-color:#9C1E32"/>
		<stop  offset="0.66" style="stop-color:#DC8029"/>
		<stop  offset="1" style="stop-color:#F0B71C"/>
	</linearGradient>
	<path class="st22" d="M28.3,38.7c-0.6,0-0.6,0.9,0,0.9C28.9,39.6,28.9,38.7,28.3,38.7z"/>
	<linearGradient id="SVGID_24_" gradientUnits="userSpaceOnUse" x1="30.1651" y1="49.2048" x2="30.1651" y2="0.396">
		<stop  offset="0" style="stop-color:#3E2C3C"/>
		<stop  offset="0.33" style="stop-color:#9C1E32"/>
		<stop  offset="0.66" style="stop-color:#DC8029"/>
		<stop  offset="1" style="stop-color:#F0B71C"/>
	</linearGradient>
	<path class="st23" d="M30.2,42.4c-0.6,0-0.6,0.9,0,0.9C30.8,43.4,30.8,42.4,30.2,42.4z"/>
	<linearGradient id="SVGID_25_" gradientUnits="userSpaceOnUse" x1="25.1376" y1="49.2048" x2="25.1376" y2="0.396">
		<stop  offset="0" style="stop-color:#3E2C3C"/>
		<stop  offset="0.33" style="stop-color:#9C1E32"/>
		<stop  offset="0.66" style="stop-color:#DC8029"/>
		<stop  offset="1" style="stop-color:#F0B71C"/>
	</linearGradient>
	<path class="st24" d="M25.1,44c-0.6,0-0.6,0.9,0,0.9C25.7,45,25.7,44,25.1,44z"/>
	<linearGradient id="SVGID_26_" gradientUnits="userSpaceOnUse" x1="28.9082" y1="49.2048" x2="28.9082" y2="0.396">
		<stop  offset="0" style="stop-color:#3E2C3C"/>
		<stop  offset="0.33" style="stop-color:#9C1E32"/>
		<stop  offset="0.66" style="stop-color:#DC8029"/>
		<stop  offset="1" style="stop-color:#F0B71C"/>
	</linearGradient>
	<path class="st25" d="M28.9,36.5c-0.6,0-0.6,0.9,0,0.9C29.5,37.4,29.5,36.5,28.9,36.5z"/>
	<linearGradient id="SVGID_27_" gradientUnits="userSpaceOnUse" x1="31.422" y1="49.2048" x2="31.422" y2="0.396">
		<stop  offset="0" style="stop-color:#3E2C3C"/>
		<stop  offset="0.33" style="stop-color:#9C1E32"/>
		<stop  offset="0.66" style="stop-color:#DC8029"/>
		<stop  offset="1" style="stop-color:#F0B71C"/>
	</linearGradient>
	<path class="st26" d="M31.4,36.8c-0.6,0-0.6,0.9,0,0.9C32,37.7,32,36.8,31.4,36.8z"/>
	<linearGradient id="SVGID_28_" gradientUnits="userSpaceOnUse" x1="35.1926" y1="49.2048" x2="35.1926" y2="0.396">
		<stop  offset="0" style="stop-color:#3E2C3C"/>
		<stop  offset="0.33" style="stop-color:#9C1E32"/>
		<stop  offset="0.66" style="stop-color:#DC8029"/>
		<stop  offset="1" style="stop-color:#F0B71C"/>
	</linearGradient>
	<path class="st27" d="M35.2,37.4c0.6,0,0.6-0.9,0-0.9C34.6,36.5,34.6,37.4,35.2,37.4z"/>
	<linearGradient id="SVGID_29_" gradientUnits="userSpaceOnUse" x1="34.8784" y1="49.2048" x2="34.8784" y2="0.396">
		<stop  offset="0" style="stop-color:#3E2C3C"/>
		<stop  offset="0.33" style="stop-color:#9C1E32"/>
		<stop  offset="0.66" style="stop-color:#DC8029"/>
		<stop  offset="1" style="stop-color:#F0B71C"/>
	</linearGradient>
	<path class="st28" d="M34.9,41.2c0.6,0,0.6-0.9,0-0.9C34.3,40.2,34.3,41.2,34.9,41.2z"/>
</g>
</svg>
