<?xml version="1.0" encoding="utf-8"?>
<!-- Generator: Adobe Illustrator 21.1.0, SVG Export Plug-In . SVG Version: 6.00 Build 0)  -->
<svg version="1.1" id="Layer_1" xmlns="http://www.w3.org/2000/svg" xmlns:xlink="http://www.w3.org/1999/xlink" x="0px" y="0px"
	 viewBox="0 0 44.4 50" style="enable-background:new 0 0 44.4 50;" xml:space="preserve">
<style type="text/css">
	.st0{fill:url(#SVGID_1_);}
</style>
<linearGradient id="SVGID_1_" gradientUnits="userSpaceOnUse" x1="22.2264" y1="49.883" x2="22.2264" y2="-3.082829e-04">
	<stop  offset="0" style="stop-color:#3E2C3C"/>
	<stop  offset="0.33" style="stop-color:#9C1E32"/>
	<stop  offset="0.66" style="stop-color:#DC8029"/>
	<stop  offset="1" style="stop-color:#F0B71C"/>
</linearGradient>
<path class="st0" d="M33.6,6.3c-0.6,0-0.6-1,0-1C34.2,5.3,34.2,6.3,33.6,6.3z M39.2,7.6c-0.6,0-0.6-1,0-1
	C39.9,6.6,39.9,7.6,39.2,7.6z M30.3,5c-0.6,0-0.6-1,0-1C30.9,4,30.9,5,30.3,5z M23.3,7.6c-0.6,0-0.6-1,0-1C24,6.6,24,7.6,23.3,7.6z
	 M19.7,4.6c-0.6,0-0.6-1,0-1C20.3,3.7,20.3,4.6,19.7,4.6z M13.4,4.6c-0.6,0-0.6-1,0-1C14,3.7,14,4.6,13.4,4.6z M24.7,1.2
	c-0.6,0-0.6,1,0,1C25.3,2.2,25.3,1.2,24.7,1.2z M12.2,5.6c-0.6,0-0.6,1,0,1C12.9,6.6,12.9,5.6,12.2,5.6z M17.7,5.5c-0.6,0-0.6,1,0,1
	C18.4,6.5,18.4,5.5,17.7,5.5z M26.8,5.1c-0.6,0-0.6,1,0,1C27.5,6.1,27.5,5.1,26.8,5.1z M29.5,6.5c-0.6,0-0.6,1,0,1
	C30.1,7.5,30.1,6.5,29.5,6.5z M23.3,4.6c-0.6,0-0.6,1,0,1C24,5.6,24,4.6,23.3,4.6z M38.4,32.6c-0.6,0-0.6,1,0,1
	C39,33.6,39,32.6,38.4,32.6z M38.6,14.2c-0.6,0-0.6,1,0,1C39.2,15.2,39.2,14.2,38.6,14.2z M39.6,19.7c0.6,0,0.6-1,0-1
	C38.9,18.7,38.9,19.7,39.6,19.7z M38.7,12.6c0.6,0,0.6-1,0-1C38.1,11.6,38.1,12.6,38.7,12.6z M37.7,5.3c0.6,0,0.6-1,0-1
	C37.1,4.3,37.1,5.3,37.7,5.3z M44.4,31.7c-0.1,0.6-0.3,0.9-0.6,1.4c-0.7,1.1-1.4,2.3-2.1,3.4c0,0-0.1,0.1-0.1,0.1c0,0,0,0,0,0
	c0,0,0,0,0,0c0,0,0,0,0,0c-0.1,0.1-0.2,0.1-0.3,0.1c-1.3,0-2.5,0-3.8,0c-0.1,0-0.2,0-0.3,0v5.7c0,0.3-0.2,0.5-0.5,0.5h-5.5v6.5
	c0,0.3-0.2,0.5-0.5,0.5h-5.3c0,0,0,0,0,0c0,0,0,0,0,0H20c0,0,0,0,0,0h-5.3c0,0,0,0,0,0H9.4c0,0,0,0,0,0H4.1c0,0,0,0,0,0H0.5
	C0.2,50,0,49.8,0,49.5v-1.7c0,0,0,0,0,0V37.3c0,0,0,0,0,0V32c0,0,0,0,0,0v-5.3c0,0,0,0,0,0v-5.3c0,0,0,0,0,0v-5.3
	c0-0.3,0.2-0.5,0.5-0.5h5.3c0,0,0,0,0,0H6V9c0-0.3,0.2-0.5,0.5-0.5l4.1,0c0,0,0-5.7,0-5.7c0-0.2,0.1-0.3,0.2-0.4
	c1.2-0.6,3-1.7,3.7-2.2C14.8,0.1,15,0,15.3,0h28.6c0.2,0,0.4,0.1,0.5,0.3c0,0.1,0.1,0.2,0,0.3c0,1.7,0,3.4,0,5.1
	c0,6.7,0,13.4,0,20.1C44.4,27.7,44.6,29.8,44.4,31.7z M1,20.2l3.6-3.6H1V20.2z M1,25.5l8.9-8.9H6l-5,5V25.5z M1,30.8l14.2-14.2h-3.9
	L1,26.9V30.8z M1,36.1l19.5-19.5h-3.9L1,32.2V36.1z M1,41.4l24.8-24.8h-3.9L1,37.5V41.4z M30.1,45.4L26.5,49h3.6V45.4z M30.1,40.1
	L21.2,49h3.9l5-5V40.1z M30.1,34.8L15.9,49h3.9l10.3-10.3V34.8z M30.1,29.5L10.6,49h3.9l15.6-15.6V29.5z M30.1,24.2L5.3,49h3.9
	l20.9-20.9V24.2z M30.1,18.9L1,48.1v1h2.9l26.2-26.2V18.9z M30.1,16.6h-2.9L1.3,42.4c-0.1,0.1-0.2,0.1-0.4,0.1v4.1l29.1-29.1V16.6z
	 M36.1,9.5H7v6h4.1c0,0,0,0,0,0h5.3c0,0,0,0,0,0h5.3c0,0,0,0,0,0H27c0,0,0,0,0,0h3.6c0.3,0,0.5,0.2,0.5,0.5v1.7c0,0,0,0,0,0V23
	c0,0,0,0,0,0v5.3c0,0,0,0,0,0v5.3c0,0,0,0,0,0v5.3c0,0,0,0,0,0V42h5V9.5z M40.7,3.3c-1.1,0-2.2,0-3.3,0c-8.6,0-17.2,0-25.8,0
	c0,1.2,0,4,0,5.2h3.5c-0.3-0.2-0.2-0.9,0.3-0.9c0.5,0,0.6,0.7,0.3,0.9h3.9c-0.2-0.3,0-0.7,0.4-0.7c0.4,0,0.6,0.5,0.4,0.7H31
	c0.1-0.1,0.2-0.2,0.4-0.2c0.2,0,0.3,0.1,0.4,0.2h4.7c0.3,0,0.5,0.2,0.5,0.5v0.9c0.1-0.1,0.2-0.1,0.3-0.1c0.6,0,0.6,1,0,1
	c-0.1,0-0.3-0.1-0.3-0.1v25.1c1.2,0,2.4,0,3.6,0c0-1.2,0-2.4,0-3.7C40.7,22.5,40.7,12.9,40.7,3.3z M42.5,1c-1.1,0-2.3,0-3.4,0
	c-1.9,0-3.8,0-5.7,0c0.1,0.3-0.1,0.7-0.5,0.7c-0.4,0-0.5-0.4-0.5-0.7c-3.8,0-7.6,0-11.4,0c-1,0-1.9,0-2.9,0c0.1,0.3,0,0.7-0.4,0.7
	c-0.4,0-0.6-0.4-0.4-0.7c-0.5,0-1.1,0-1.6,0c-0.1,0-0.2,0-0.2,0c-0.3,0.1-0.7,0.4-1,0.6c-0.5,0.2-0.9,0.5-1.4,0.7c0.6,0,1.2,0,1.8,0
	c7.1,0,14.1,0,21.2,0c0-0.2,0.2-0.5,0.5-0.5c0.3,0,0.5,0.2,0.5,0.5c1.3,0,2.6,0,4,0C41.5,1.9,42,1.4,42.5,1z M43.4,31.1
	c0-0.8,0-1.6,0-2.4c-0.1,0.1-0.2,0.1-0.3,0.1c-0.6,0-0.6-1,0-1c0.1,0,0.3,0.1,0.3,0.1c0-1.8,0-3.5,0-5.3c0,0-0.1,0-0.2,0
	c-0.6,0-0.6-1,0-1c0.1,0,0.1,0,0.2,0c0-6.7,0-13.4,0-20.1c-0.6,0.5-1.1,1-1.7,1.4c0,1.3,0,2.6,0,3.9c0,0.3,0,0.7,0,1
	c0,0,0.1,0,0.2,0c0.6,0,0.6,1,0,1c-0.1,0-0.1,0-0.2,0c0,2.3,0,4.5,0,6.8c0.6,0,0.6,1,0,1c0,0.1,0,14.5,0,17.7
	c0.5-0.8,0.9-1.6,1.5-2.3c0.1-0.1,0.2-0.3,0.2-0.3C43.4,31.6,43.4,31.3,43.4,31.1z M42.7,13.1c-0.6,0-0.6,1,0,1
	C43.3,14.1,43.3,13.1,42.7,13.1z M37.9,29.1c-0.6,0-0.6,1,0,1C38.5,30.1,38.5,29.1,37.9,29.1z M39.1,27.2c0.6,0,0.6-1,0-1
	C38.4,26.2,38.4,27.2,39.1,27.2z M39.4,34.3c-0.6,0-0.6,1,0,1C40,35.3,40,34.3,39.4,34.3z M37.9,23.2c0.6,0,0.6-1,0-1
	C37.3,22.2,37.3,23.2,37.9,23.2z"/>
</svg>
