<?xml version="1.0" encoding="utf-8"?>
<!-- Generator: Adobe Illustrator 21.1.0, SVG Export Plug-In . SVG Version: 6.00 Build 0)  -->
<svg version="1.1" id="Layer_1" xmlns="http://www.w3.org/2000/svg" xmlns:xlink="http://www.w3.org/1999/xlink" x="0px" y="0px"
	 viewBox="0 0 50 30.7" style="enable-background:new 0 0 50 30.7;" xml:space="preserve">
<style type="text/css">
	.st0{fill:url(#SVGID_1_);}
</style>
<g>
	<linearGradient id="SVGID_1_" gradientUnits="userSpaceOnUse" x1="25" y1="29.3545" x2="25" y2="0.2558">
		<stop  offset="0" style="stop-color:#3E2C3C"/>
		<stop  offset="0.33" style="stop-color:#9C1E32"/>
		<stop  offset="0.66" style="stop-color:#DC8029"/>
		<stop  offset="1" style="stop-color:#F0B71C"/>
	</linearGradient>
	<path class="st0" d="M3.5,30.7c-0.1,0-0.2,0-0.2-0.1c-0.4-0.1-1.3-0.3-3-0.8C0.1,29.8,0,29.6,0,29.4V10.5c0-0.1,0-0.2,0.1-0.3
		l2.2-2.3c0-0.1,0.1-0.1,0.2-0.1c0.1,0,0.2,0,0.3,0l7.5,1.2V0.9H6.7c-0.2,0-0.4-0.2-0.4-0.4S6.5,0,6.7,0h10.6c0.2,0,0.4,0.2,0.4,0.4
		s-0.2,0.4-0.4,0.4h-3.1v8.7l19.4,3.1V8.6H30c-0.2,0-0.4-0.2-0.4-0.4c0-0.2,0.2-0.4,0.4-0.4h10.6c0.2,0,0.4,0.2,0.4,0.4
		c0,0.2-0.2,0.4-0.4,0.4h-3.2v4.6c0,0,0,0,0,0L48.6,15c0.1,0,0.2,0.1,0.3,0.2c0,0.1,1.2,2.1,1.1,4.3c0,0.8-0.2,1.6-0.4,2.3
		c-0.2,0.8-0.4,1.6-0.4,2.4c0,0,0,0,0,0c0,0,0,0.1,0,0.1c0,0.5,0.1,0.9,0.2,1.4c0,0.1,0,0.3,0,0.4c-0.1,0.1-0.2,0.2-0.3,0.2
		L3.5,30.7C3.5,30.7,3.5,30.7,3.5,30.7z M3.4,8.7c0.7,1.4,2.1,4.7,1.9,8.2c-0.1,1.6-0.5,3.2-0.9,4.8c-0.7,2.6-1.4,5.2-0.5,8.2l2-0.2
		c-0.9-3-0.2-5.7,0.5-8.3c0.4-1.5,0.8-3,0.9-4.4c0.2-3.6-1.6-7.1-2-7.9L3.4,8.7z M0.9,29.1c0.7,0.2,1.5,0.4,2,0.6
		c-0.8-3-0.1-5.6,0.6-8.2c0.4-1.6,0.8-3.1,0.9-4.6c0.2-3.4-1.3-6.7-1.9-7.9l-1.6,1.7V29.1z M6.3,27.3c0,0.7,0.2,1.5,0.4,2.2l41.6-4
		c-0.1-0.3-0.1-0.5-0.1-0.8L6.3,27.3z M6.7,23.4c-0.2,1-0.4,2-0.4,3l41.9-2.5c0-0.3,0.1-0.7,0.1-1L6.7,23.4z M7.7,19.6
		c-0.1,0.7-0.3,1.3-0.5,2c-0.1,0.3-0.2,0.7-0.3,1l41.7-0.5c0-0.1,0.1-0.3,0.1-0.4c0.1-0.2,0.1-0.4,0.2-0.6L7.7,19.6z M7.9,18.7
		l41.2,1.5c0-0.2,0.1-0.5,0.1-0.7c0-0.1,0-0.2,0-0.3l-41-3.4c0,0.4,0,0.7,0,1.1C8.1,17.5,8,18.1,7.9,18.7z M8,15l41,3.4
		c0-0.3-0.1-0.5-0.2-0.8L7.4,12C7.7,12.9,7.9,13.9,8,15z M7.1,11l41.5,5.6c-0.1-0.3-0.3-0.6-0.3-0.8L6.3,9.2
		C6.5,9.6,6.8,10.3,7.1,11z M34.5,12.8l2,0.3V8.6h-2V12.8z M11.1,9.1l2.2,0.4V0.9h-2.2V9.1z"/>
</g>
</svg>
